<?xml version="1.0" standalone="no"?>
<!DOCTYPE svg PUBLIC "-//W3C//DTD SVG 20010904//EN"
 "http://www.w3.org/TR/2001/REC-SVG-20010904/DTD/svg10.dtd">
<svg version="1.0" xmlns="http://www.w3.org/2000/svg"
 width="1024.000000pt" height="1024.000000pt" viewBox="0 0 1024.000000 1024.000000"
 preserveAspectRatio="xMidYMid meet">

<g transform="translate(0.000000,1024.000000) scale(0.100000,-0.100000)"
fill="#000000" stroke="none">
<path d="M4276 9969 c-445 -51 -958 -281 -1220 -547 -81 -82 -122 -141 -181
-258 l-42 -85 -114 -77 c-123 -83 -222 -157 -281 -210 -35 -32 -37 -32 -47
-13 -22 40 -41 137 -41 207 0 47 10 113 30 190 54 216 38 256 -103 255 -81 0
-200 -42 -291 -101 -184 -120 -312 -305 -378 -548 -18 -63 -21 -107 -22 -247
-1 -192 15 -273 80 -414 18 -40 31 -78 27 -85 -4 -6 -26 -38 -50 -70 -24 -32
-68 -103 -99 -158 l-55 -99 -92 -46 c-318 -159 -494 -370 -457 -547 14 -68 71
-149 139 -196 31 -21 48 -40 45 -49 -18 -52 -85 -344 -98 -426 -38 -239 -41
-285 -41 -600 0 -332 5 -400 51 -685 90 -563 324 -1149 647 -1618 l50 -73 -23
-91 c-30 -117 -30 -241 0 -302 16 -33 20 -62 20 -137 0 -136 35 -320 85 -452
4 -9 -72 -11 -357 -9 -378 3 -532 -6 -608 -34 -66 -26 -174 -99 -216 -147 -43
-51 -86 -132 -111 -213 -17 -54 -18 -105 -18 -644 l0 -585 26 -71 c50 -137
144 -245 264 -304 129 -64 -202 -60 4335 -60 4580 0 4194 -6 4331 66 112 59
191 149 245 279 l29 70 3 592 c2 520 1 600 -13 655 -47 180 -182 317 -370 375
-57 17 -120 18 -1147 18 -598 0 -1084 3 -1080 6 4 4 41 29 83 57 238 159 569
456 770 692 520 610 841 1361 924 2162 17 171 20 538 5 708 -82 906 -432 1680
-1051 2324 -237 247 -568 507 -822 646 -47 25 -88 56 -105 79 -95 129 -185
211 -302 274 -167 91 -346 110 -416 46 -21 -20 -22 -20 -135 19 -63 22 -170
52 -239 68 l-124 28 -75 67 c-179 161 -518 279 -920 319 -117 11 -343 11 -445
-1z m604 -150 c169 -28 347 -80 450 -131 67 -33 101 -58 165 -122 97 -98 157
-196 235 -384 69 -164 164 -422 158 -428 -2 -2 -20 1 -38 6 -135 39 -519 84
-855 101 -741 37 -1341 -63 -2043 -341 -45 -18 -84 -31 -86 -29 -9 9 78 394
115 509 27 82 88 200 137 265 207 272 794 530 1322 579 93 8 319 -4 440 -25z
m1141 -535 c190 -54 271 -89 296 -127 59 -93 72 -257 29 -379 -27 -77 -60
-128 -83 -128 -9 0 -56 12 -104 26 l-88 27 -11 54 c-7 30 -23 87 -36 126 -13
39 -22 73 -19 75 2 3 7 -4 11 -14 12 -37 27 -79 31 -83 2 -3 10 4 19 15 14 18
15 18 4 -4 -18 -37 4 -166 26 -158 8 3 14 2 14 -3 0 -11 81 -32 93 -24 6 4 7
1 2 -7 -6 -10 -3 -12 13 -8 12 4 20 2 16 -3 -9 -16 29 -10 48 8 18 17 25 39 9
28 -5 -3 -12 -1 -15 4 -3 4 4 8 15 7 16 -1 24 9 35 39 16 48 16 48 5 41 -5 -4
-5 9 -1 30 11 47 22 57 15 13 l-5 -34 10 30 c12 37 11 177 -1 169 -5 -3 -6 2
-3 11 4 8 3 32 -1 52 -5 28 -9 33 -16 22 -8 -10 -9 -8 -4 9 4 13 2 22 -5 22
-6 0 -19 8 -28 17 -16 16 -16 16 1 10 9 -3 17 -3 17 1 0 14 -42 43 -55 38 -7
-2 -16 2 -19 11 -5 11 -14 13 -34 9 -20 -5 -23 -4 -12 4 13 8 13 10 -2 11 -10
1 -21 2 -25 3 -11 2 -74 26 -100 38 -12 6 -30 9 -40 6 -10 -3 -25 1 -32 9 -8
9 -23 12 -40 8 -19 -4 -22 -3 -11 5 13 8 13 10 -1 10 -10 0 -20 -11 -24 -27
-5 -21 -8 -24 -16 -12 -5 8 -9 9 -9 2 0 -21 12 -43 21 -37 5 3 6 -2 3 -10 -4
-11 0 -16 12 -17 11 0 14 -3 7 -5 -13 -6 -8 -26 15 -62 18 -28 32 -17 43 35
l8 38 -4 -40 c-3 -22 -6 -44 -7 -50 0 -5 2 -21 5 -35 6 -21 5 -21 -7 4 -7 16
-16 24 -20 18 -7 -12 10 -62 21 -62 5 0 9 -17 10 -38 1 -20 -1 -30 -4 -22 -11
30 -76 187 -103 245 -15 33 -30 70 -34 83 -9 27 -16 28 165 -24z m27 -53 c3
-8 -1 -12 -9 -9 -7 2 -15 10 -17 17 -3 8 1 12 9 9 7 -2 15 -10 17 -17z m88
-24 c10 -10 -48 -9 -64 2 -8 5 0 7 22 7 19 -1 38 -5 42 -9z m-99 -3 c-3 -3
-12 -4 -19 -1 -8 3 -5 6 6 6 11 1 17 -2 13 -5z m293 -174 l-8 -35 -1 31 c-1
17 2 34 6 37 11 12 12 3 3 -33z m-270 -85 c0 -8 -4 -15 -10 -15 -5 0 -7 7 -4
15 4 8 8 15 10 15 2 0 4 -7 4 -15z m17 -7 c-3 -8 -6 -5 -6 6 -1 11 2 17 5 13
3 -3 4 -12 1 -19z m1159 -253 c536 -398 958 -929 1201 -1513 71 -172 174 -474
173 -509 0 -4 -9 -19 -19 -32 l-18 -23 2 38 c1 22 5 47 9 57 6 11 4 17 -5 17
-7 0 -10 3 -7 6 4 3 2 20 -3 37 -6 18 -12 43 -15 56 -3 13 -9 32 -15 43 -5 10
-7 18 -4 18 3 0 -5 19 -17 43 -12 23 -21 51 -20 62 3 17 1 18 -8 5 -9 -12 -10
-11 -5 6 3 12 -1 34 -10 50 -8 16 -15 36 -15 44 0 13 -1 13 -11 0 -8 -12 -9
-10 -4 9 5 16 4 21 -4 17 -6 -4 -9 -2 -6 7 3 7 -9 45 -26 83 -18 38 -33 71
-34 74 -10 41 -18 52 -27 39 -8 -11 -9 -10 -4 4 7 22 -13 67 -31 67 -7 0 -13
9 -13 19 0 11 -5 32 -11 48 -11 26 -12 27 -20 8 -8 -16 -9 -15 -5 9 2 18 -3
39 -15 55 -10 14 -35 55 -56 91 -29 50 -43 65 -60 64 -15 -1 -20 3 -16 13 5
12 7 12 14 2 4 -8 11 -10 15 -6 4 3 1 13 -6 22 -10 12 -16 13 -29 3 -14 -11
-14 -11 -3 4 11 13 11 21 2 39 -9 16 -14 18 -20 9 -5 -9 -9 -9 -14 -1 -4 6 -2
11 4 11 9 0 -52 98 -69 110 -4 3 -10 12 -14 21 -4 12 -16 16 -40 15 -29 -2
-34 0 -29 16 2 10 8 21 13 24 5 3 9 10 9 16 0 6 -6 6 -15 -2 -13 -11 -14 -10
-10 1 3 8 -1 23 -10 34 -15 20 -15 20 -8 0 3 -11 3 -17 -1 -13 -4 3 -9 13 -10
22 -3 19 -22 17 -20 -2 2 -9 -4 -8 -18 4 -11 10 -17 26 -15 36 5 19 -25 43
-37 31 -3 -4 -15 -7 -25 -8 -15 -1 -18 5 -15 36 3 28 -1 41 -14 48 -9 5 -13
13 -9 17 5 5 12 2 17 -6 5 -8 11 -12 14 -9 3 3 -10 21 -29 39 -19 19 -35 29
-35 22 0 -9 -5 -9 -20 0 -16 11 -17 14 -5 21 13 7 13 10 1 23 -8 8 -22 11 -31
7 -14 -5 -16 -2 -11 13 4 15 -1 22 -24 32 -20 9 -27 18 -23 29 5 13 2 15 -17
10 -13 -3 -30 -1 -37 5 -10 8 -13 7 -13 -2 0 -8 -3 -10 -7 -7 -3 4 2 16 12 27
10 11 15 23 11 27 -4 4 -11 1 -15 -6 -6 -10 -10 -10 -16 -1 -4 6 -4 14 -1 17
8 8 -33 53 -48 53 -6 0 -6 -4 1 -11 9 -9 8 -15 -3 -26 -17 -17 -8 -37 13 -29
8 3 11 1 8 -4 -8 -13 -32 -13 -40 0 -3 5 -1 19 5 31 10 17 8 25 -9 43 -12 12
-18 26 -14 31 5 4 1 6 -8 2 -11 -4 -16 0 -15 11 1 11 -6 17 -19 17 -11 0 -20
7 -20 15 0 8 -6 15 -12 15 -7 0 -20 10 -28 23 -9 12 -20 20 -25 17 -5 -3 -12
1 -17 9 -4 7 -23 26 -41 41 l-33 27 5 -26 c3 -14 0 -26 -6 -26 -5 0 -8 7 -5
15 9 21 -53 88 -69 75 -8 -8 -13 -6 -18 5 -3 9 -2 13 4 10 14 -9 12 1 -2 13
-10 8 -13 -28 -11 -174 1 -101 -2 -182 -7 -179 -4 3 -11 -11 -14 -31 -4 -19
-10 -43 -13 -52 -6 -15 -5 -15 10 -3 9 7 17 25 17 39 0 33 6 26 14 -18 3 -21
2 -30 -3 -22 -7 11 -9 11 -14 -1 -3 -9 0 -21 8 -27 7 -6 12 -20 10 -31 -3 -12
3 -22 13 -26 9 -4 20 -11 25 -17 5 -7 12 -4 22 8 8 11 15 15 15 9 0 -7 -5 -15
-10 -18 -6 -4 -8 -11 -4 -16 3 -5 10 -7 15 -4 5 3 6 0 4 -7 -3 -8 7 -25 21
-38 15 -14 24 -20 20 -13 -3 6 -2 15 4 18 6 4 9 1 8 -7 -2 -8 5 -12 17 -10 18
2 18 2 3 -8 -10 -6 -18 -16 -18 -22 0 -7 4 -7 13 1 11 8 13 6 13 -12 -1 -20 4
-22 44 -21 25 1 37 -1 28 -3 -10 -2 -18 -9 -18 -14 0 -6 4 -8 9 -4 5 3 13 0
17 -6 4 -8 3 -9 -4 -5 -7 4 -12 1 -12 -6 -1 -7 -7 -2 -14 11 -7 13 -16 19 -19
14 -8 -13 44 -93 60 -93 12 0 26 -30 21 -46 -1 -5 2 -20 6 -33 6 -18 10 -21
17 -10 7 9 8 4 3 -16 -3 -18 -2 -25 3 -18 6 8 9 -2 10 -27 2 -49 18 -80 41
-80 15 0 15 2 2 11 -13 9 -13 10 0 6 8 -2 15 -10 15 -18 0 -7 9 -15 19 -17 14
-3 17 0 13 11 -8 21 20 29 58 17 l30 -10 -31 4 c-22 4 -33 0 -42 -14 -10 -17
-8 -19 17 -18 32 1 54 -9 46 -22 -3 -4 6 -15 20 -24 29 -19 39 -20 29 -3 -5 8
-3 8 9 -2 9 -7 14 -18 11 -23 -3 -5 3 -12 15 -15 11 -3 23 -14 26 -24 4 -11
11 -17 16 -14 5 4 9 1 9 -4 0 -6 5 -11 11 -11 6 0 8 7 4 18 -5 13 -4 14 6 5
10 -10 9 -15 -1 -28 -10 -12 -10 -18 1 -31 49 -59 50 -169 3 -256 -11 -21 -12
-33 -4 -47 6 -12 6 -22 1 -26 -6 -3 -14 3 -20 13 -7 14 -3 31 16 71 35 70 36
156 3 221 -42 85 -164 177 -277 211 -24 6 -45 19 -47 28 -3 9 -10 36 -16 60
-16 62 -56 147 -100 211 -39 57 -180 199 -238 239 -22 15 -30 27 -24 34 5 7
18 46 28 87 19 80 25 273 12 363 -8 47 -7 47 15 36 12 -7 72 -49 133 -94z
m-4505 -78 l-26 -158 -70 49 c-119 84 -118 78 -24 153 45 35 96 76 113 91 17
14 31 26 32 25 0 -1 -11 -73 -25 -160z m3486 102 c-14 -8 -22 -8 -30 0 -8 8
-3 11 19 11 25 -1 27 -2 11 -11z m923 -13 c0 -3 -4 -8 -10 -11 -5 -3 -10 -1
-10 4 0 6 5 11 10 11 6 0 10 -2 10 -4z m-1703 -45 c790 -104 1384 -323 1679
-619 191 -192 237 -418 133 -649 -84 -189 -279 -382 -496 -492 l-63 -31 -4 22
c-25 122 -95 381 -129 482 -24 69 -42 126 -41 126 2 0 30 -12 64 -27 68 -29
92 -25 98 17 10 67 -234 229 -489 324 -107 39 -413 123 -567 155 -283 59 -646
86 -1049 78 -322 -6 -452 -19 -708 -68 -729 -139 -1363 -422 -1527 -678 -32
-51 -35 -73 -13 -91 13 -11 25 -6 71 24 31 21 57 36 59 34 2 -2 -9 -46 -26
-98 -25 -81 -74 -306 -94 -433 -7 -46 1 -47 -185 20 -256 92 -401 200 -474
353 -25 54 -31 80 -34 155 -4 81 -1 98 25 165 41 105 101 190 212 300 157 154
347 279 681 445 344 172 613 276 918 356 328 86 560 117 1142 153 30 2 190 2
355 1 238 -2 333 -7 462 -24z m1883 -61 c0 -4 -6 -10 -14 -13 -12 -5 -14 2 -7
31 2 7 21 -10 21 -18z m59 -91 c-16 -10 -23 -4 -14 10 3 6 11 8 17 5 6 -4 5
-9 -3 -15z m197 -176 c-10 -10 -19 5 -10 18 6 11 8 11 12 0 2 -7 1 -15 -2 -18z
m-36 7 c0 -5 -5 -10 -11 -10 -5 0 -7 5 -4 10 3 6 8 10 11 10 2 0 4 -4 4 -10z
m85 -50 c3 -5 1 -10 -4 -10 -6 0 -11 5 -11 10 0 6 2 10 4 10 3 0 8 -4 11 -10z
m92 -99 c10 -16 9 -18 -8 -14 -10 3 -19 12 -19 19 0 20 13 17 27 -5z m-280
-288 c-3 -10 -5 -2 -5 17 0 19 2 27 5 18 2 -10 2 -26 0 -35z m-2157 -27 c317
-38 550 -86 800 -167 183 -59 210 -74 243 -137 66 -123 151 -385 206 -641 32
-146 71 -398 71 -459 0 -28 16 -62 66 -142 131 -209 185 -347 210 -533 22
-165 0 -334 -60 -472 -78 -175 -246 -345 -451 -454 -33 -18 -49 -24 -35 -14
139 101 254 272 301 449 28 105 31 288 6 393 -85 353 -400 626 -857 741 -265
67 -484 92 -800 92 -248 0 -368 -10 -599 -48 -392 -65 -731 -166 -935 -280
-43 -24 -83 -41 -89 -37 -5 3 -7 1 -4 -5 4 -5 -15 -26 -42 -47 -28 -19 -82
-70 -122 -113 -40 -42 -76 -76 -81 -74 -5 1 -7 -2 -3 -7 3 -6 -8 -32 -25 -59
-71 -116 -112 -237 -130 -386 -25 -203 40 -422 176 -596 56 -72 57 -74 17 -40
-23 19 -42 41 -42 48 -1 7 -6 10 -13 6 -7 -4 -8 -3 -4 4 4 7 3 12 -3 12 -5 0
-13 -4 -16 -10 -9 -14 -28 -12 -22 3 2 6 10 11 16 9 22 -5 10 18 -17 32 -16 8
-34 22 -42 30 -10 13 -16 14 -28 4 -13 -11 -14 -11 -8 0 5 8 -18 37 -68 85
-96 93 -146 160 -201 272 -57 114 -74 183 -82 315 -8 147 32 369 90 502 58
133 60 138 69 318 19 393 56 692 93 760 8 14 22 43 32 65 21 48 150 178 228
229 32 22 53 42 49 48 -4 6 -2 8 3 5 6 -4 38 7 71 23 34 17 64 30 67 30 3 0
30 11 58 24 29 14 73 30 99 37 26 6 46 14 44 18 -2 3 10 7 27 7 18 1 82 10
142 21 194 35 461 63 800 84 213 13 1030 6 1090 -9 75 -19 190 -44 204 -45 8
0 50 -18 93 -39 43 -21 83 -38 87 -38 5 0 26 -9 48 -20 21 -10 83 -40 137 -66
55 -25 106 -53 114 -60 7 -8 18 -14 25 -14 6 0 21 -10 34 -22 23 -21 29 -15
17 16 -3 9 -11 13 -17 9 -6 -3 -7 -1 -3 6 10 16 -31 79 -62 95 -56 28 -211 77
-223 70 -7 -4 -9 -3 -6 3 6 9 -40 24 -158 52 -22 5 -65 17 -95 25 -63 18 -313
60 -445 75 -367 43 -949 39 -1280 -8 -38 -6 -75 -11 -82 -11 -7 0 -21 -9 -32
-21 -11 -12 -25 -19 -33 -16 -9 4 -7 6 5 6 9 1 17 6 17 11 0 7 -14 9 -37 5
-125 -21 -254 -48 -321 -66 -42 -12 -93 -25 -112 -29 -67 -16 -255 -76 -275
-88 -5 -4 -14 -7 -20 -8 -5 0 -16 -2 -23 -2 -7 -1 -11 -5 -9 -9 3 -5 -7 -9
-21 -10 -15 0 -28 -6 -30 -12 -2 -6 -15 -11 -29 -11 -23 0 -24 -2 -12 -17 12
-16 12 -17 -2 -5 -13 10 -22 10 -48 -1 -17 -7 -28 -17 -24 -21 4 -4 0 -4 -9
-1 -9 4 -19 2 -23 -4 -3 -6 -14 -11 -23 -11 -43 2 193 102 386 164 295 95 617
158 982 191 201 19 825 13 1010 -9z m-3455 -6 c-10 -11 -21 -18 -23 -15 -3 3
3 12 14 20 27 20 30 18 9 -5z m6182 -2 c-3 -8 -6 -5 -6 6 -1 11 2 17 5 13 3
-3 4 -12 1 -19z m-3654 -5 c-7 -2 -19 -2 -25 0 -7 3 -2 5 12 5 14 0 19 -2 13
-5z m212 -3 c-3 -5 -12 -10 -18 -10 -7 0 -6 4 3 10 19 12 23 12 15 0z m548 3
c-7 -2 -19 -2 -25 0 -7 3 -2 5 12 5 14 0 19 -2 13 -5z m2937 -48 c0 -5 -4 -3
-10 5 -11 18 -22 8 -24 -24 0 -14 -4 -22 -8 -18 -4 4 -2 24 4 44 10 34 13 36
24 20 7 -9 13 -21 14 -27z m5 -35 c3 -5 2 -10 -4 -10 -5 0 -13 5 -16 10 -3 6
-2 10 4 10 5 0 13 -4 16 -10z m-4296 -4 c-12 -10 -60 -16 -54 -6 3 5 18 10 32
10 15 0 24 -2 22 -4z m2170 -45 c7 -5 9 -11 5 -14 -5 -3 -15 1 -22 9 -14 16
-5 18 17 5z m1801 -56 c0 -8 7 -15 15 -15 8 0 15 -9 15 -20 0 -11 -1 -20 -2
-20 -2 0 -18 16 -37 35 -31 32 -32 35 -12 35 12 0 21 -6 21 -15z m-4460 -22
c-8 -3 -17 -9 -20 -13 -3 -4 -21 -10 -40 -14 -32 -5 -33 -5 -10 5 14 6 32 15
40 19 8 5 22 9 30 9 13 -1 13 -1 0 -6z m2967 -29 c-3 -3 -12 -4 -19 -1 -8 3
-5 6 6 6 11 1 17 -2 13 -5z m-4629 -21 c-22 -26 -65 -121 -80 -175 -7 -27 -16
-48 -20 -48 -4 0 -5 7 -2 15 4 8 4 15 1 15 -23 0 -387 -223 -395 -242 -2 -5
-8 -5 -14 -2 -6 4 -8 -3 -6 -17 2 -13 9 -23 15 -22 7 2 10 -3 7 -11 -6 -17 66
-78 84 -71 7 3 11 1 7 -4 -5 -10 82 -46 125 -52 14 -2 27 -7 30 -11 3 -4 54
-10 113 -14 80 -5 107 -4 107 5 0 7 -5 9 -12 5 -7 -4 -8 -3 -4 4 4 7 2 20 -3
29 -10 17 -12 15 -15 -16 0 -8 -8 -16 -16 -18 -12 -4 -13 -3 -1 5 7 5 11 14 7
20 -3 6 -2 13 3 16 5 3 7 15 4 27 -3 11 -9 16 -12 10 -4 -5 -7 9 -7 32 l-2 41
18 -45 c9 -24 26 -60 38 -79 12 -19 22 -38 22 -42 0 -12 -148 -9 -216 3 -99
18 -211 68 -259 115 -101 97 -60 205 130 349 88 66 172 115 275 161 86 38 99
41 78 17z m6577 7 c-3 -5 -1 -10 4 -10 6 0 11 -4 11 -10 0 -5 -7 -7 -15 -4 -8
4 -15 1 -15 -7 0 -7 -3 -10 -6 -7 -6 7 13 48 22 48 3 0 2 -4 -1 -10z m-674
-51 c81 -44 129 -98 129 -147 0 -71 -52 -126 -172 -182 -56 -26 -186 -63 -196
-55 -2 2 15 28 37 59 60 86 121 248 121 324 0 17 5 32 11 32 6 0 38 -14 70
-31z m719 -21 c0 -5 -4 -8 -10 -8 -5 0 -10 10 -10 23 0 18 2 19 10 7 5 -8 10
-18 10 -22z m-5355 -18 c-3 -5 -23 -19 -45 -31 -22 -12 -37 -26 -34 -30 2 -4
-1 -11 -7 -15 -8 -4 -9 -3 -5 4 12 20 -3 14 -40 -15 -34 -27 -84 -110 -84
-139 0 -8 -7 -26 -16 -39 -9 -14 -17 -42 -17 -64 -1 -21 -5 -37 -8 -35 -9 5
-35 -90 -60 -214 -18 -94 -20 -121 -11 -160 12 -55 8 -70 -7 -21 -5 19 -10 27
-10 19 -1 -8 -8 -67 -16 -130 -7 -64 -15 -154 -16 -200 -1 -71 -8 -102 -40
-190 -77 -212 -111 -362 -124 -555 -6 -79 0 -163 20 -285 4 -28 4 -31 -4 -13
-6 12 -15 69 -22 127 -22 194 12 413 107 694 40 118 46 149 54 268 20 279 69
546 136 744 54 159 66 177 163 237 87 55 96 59 86 43z m4951 -56 c-3 -8 -11
-14 -18 -14 -9 0 -9 3 0 12 7 7 13 21 13 33 1 17 2 18 6 2 3 -10 2 -25 -1 -33z
m-4956 2 c-4 -4 -16 -4 -26 2 -16 9 -14 10 8 9 15 -1 23 -6 18 -11z m103 -41
c-3 -9 -8 -14 -10 -11 -3 3 -2 9 2 15 9 16 15 13 8 -4z m-1465 -142 c-1 -49 2
-104 6 -123 5 -28 5 -31 -4 -17 -17 27 -21 227 -5 227 2 0 3 -39 3 -87z m6312
54 c0 -2 -9 -14 -20 -27 -11 -13 -20 -18 -20 -12 0 6 7 18 16 26 15 15 24 20
24 13z m-5125 -37 c3 -5 1 -10 -4 -10 -6 0 -11 5 -11 10 0 6 2 10 4 10 3 0 8
-4 11 -10z m5662 -6 c-3 -3 -12 -4 -19 -1 -8 3 -5 6 6 6 11 1 17 -2 13 -5z
m-20 -46 c-3 -8 -6 -5 -6 6 -1 11 2 17 5 13 3 -3 4 -12 1 -19z m-6880 -30 c-3
-8 -6 -5 -6 6 -1 11 2 17 5 13 3 -3 4 -12 1 -19z m6251 -10 c-7 -12 -14 -24
-15 -26 0 -2 -9 -5 -20 -7 -10 -2 -20 -4 -22 -4 -2 -1 4 -11 15 -23 19 -23 19
-23 -1 -6 -20 16 -22 16 -48 -1 -15 -9 -25 -20 -22 -23 3 -2 -1 -5 -7 -6 -7 0
-35 -8 -61 -18 -35 -12 -45 -19 -35 -26 9 -6 5 -7 -11 -3 -13 4 -21 3 -18 -1
3 -5 -17 -10 -43 -11 -27 -1 -59 -7 -72 -14 -14 -8 -50 -12 -90 -10 -37 1 -69
-2 -72 -8 -4 -6 -13 -8 -21 -4 -18 6 -20 -8 -3 -25 9 -9 8 -12 -6 -12 -9 0
-14 5 -11 10 10 15 -6 12 -26 -6 -10 -9 -15 -23 -12 -32 5 -11 2 -14 -10 -9
-28 11 -28 -9 1 -23 17 -8 22 -14 14 -17 -7 -3 -22 3 -33 13 -18 17 -21 17
-36 1 -16 -16 -16 -17 7 -18 23 0 23 -1 5 -9 -28 -12 -37 -12 -30 0 10 17 -10
11 -26 -7 -9 -10 -31 -27 -50 -37 -26 -15 -30 -20 -17 -23 10 -3 25 3 34 11
18 18 34 21 34 6 0 -5 -7 -10 -15 -10 -8 0 -15 -5 -15 -11 0 -7 -12 -9 -32 -6
-24 3 -49 -4 -93 -26 -33 -17 -63 -36 -67 -42 -4 -5 -8 -6 -8 -2 0 4 -9 3 -19
-3 -17 -8 -19 -18 -16 -63 9 -117 38 -211 71 -230 8 -4 14 -17 14 -28 0 -11 5
-17 10 -14 18 11 31 -5 20 -25 -7 -13 -7 -21 2 -26 6 -4 8 -3 4 4 -3 6 -1 14
5 18 9 5 10 -1 5 -20 -5 -20 -4 -26 5 -20 8 5 9 3 4 -5 -4 -8 1 -21 14 -32 12
-11 21 -25 22 -32 2 -38 9 -71 16 -76 14 -9 72 -197 93 -301 22 -104 27 -338
8 -391 -7 -20 -6 -40 2 -64 7 -20 9 -39 6 -43 -4 -3 -10 5 -13 18 -6 22 -7 23
-14 4 -11 -28 -10 -54 2 -29 l9 20 -3 -20 c-2 -11 -9 -19 -16 -17 -10 2 -12
-5 -7 -25 4 -16 3 -23 -2 -16 -5 9 -12 1 -21 -25 -7 -20 -26 -63 -42 -94 -16
-31 -25 -59 -20 -63 5 -3 13 4 16 16 4 11 9 18 12 16 6 -7 -16 -47 -25 -46
-23 4 -32 -4 -33 -28 0 -16 -3 -22 -6 -15 -4 10 -8 10 -19 1 -8 -6 -14 -16
-14 -22 0 -6 -12 -24 -27 -39 -15 -15 -22 -28 -17 -28 6 0 11 -6 11 -14 0 -8
-6 -12 -14 -9 -9 4 -12 -1 -8 -13 5 -16 4 -17 -6 -4 -9 13 -15 11 -44 -15 -18
-16 -30 -34 -27 -39 2 -4 8 -2 12 5 6 9 12 9 24 -4 15 -14 14 -15 -7 -13 -13
1 -28 5 -34 9 -6 4 -17 -1 -24 -10 -12 -15 -12 -16 3 -10 13 4 15 2 11 -10 -5
-12 -2 -15 8 -11 11 4 15 -1 14 -21 0 -21 -5 -26 -26 -26 -18 -1 -25 3 -22 12
6 15 -13 18 -22 3 -4 -7 -13 -7 -26 0 -18 10 -23 6 -20 -13 1 -5 -3 -6 -8 -3
-13 8 -82 -34 -75 -45 3 -5 11 -9 19 -9 8 0 17 -5 20 -11 4 -5 -10 -3 -30 5
-46 19 -49 20 -42 2 4 -10 -1 -12 -16 -9 -16 3 -18 2 -9 -5 9 -6 4 -9 -17 -10
-37 -1 -54 -10 -45 -24 4 -6 2 -8 -4 -4 -12 7 -106 -27 -97 -36 4 -3 1 -9 -6
-14 -8 -4 -10 -3 -5 4 9 15 -2 15 -42 1 -18 -6 -29 -15 -26 -21 4 -6 -1 -8
-14 -4 -36 12 -34 -13 2 -31 20 -9 36 -21 36 -25 0 -5 -22 3 -50 19 -27 15
-50 30 -50 33 0 3 44 20 98 38 376 129 637 371 740 687 105 321 49 661 -174
1056 -49 86 -57 109 -74 210 -11 62 -19 113 -17 114 1 1 38 18 81 39 92 43
210 124 305 208 63 56 67 58 121 58 167 0 383 80 469 174 29 30 38 28 19 -6z
m687 12 c3 -5 1 -10 -4 -10 -6 0 -11 5 -11 10 0 6 2 10 4 10 3 0 8 -4 11 -10z
m12 -62 c-3 -7 -5 -2 -5 12 0 14 2 19 5 13 2 -7 2 -19 0 -25z m-679 -3 c-6
-14 -17 -25 -24 -25 -11 0 -11 5 -2 25 6 14 17 25 24 25 11 0 11 -5 2 -25z
m-6555 -27 c-13 -21 -13 -42 0 -50 8 -5 9 -8 1 -8 -6 0 -17 7 -24 15 -10 12
-10 15 1 15 12 0 12 2 0 9 -11 7 -10 11 5 20 25 14 27 14 17 -1z m7234 -30
c-3 -8 -6 -5 -6 6 -1 11 2 17 5 13 3 -3 4 -12 1 -19z m-836 -13 c-18 -8 -36
-15 -40 -15 -13 1 45 29 59 29 8 0 0 -6 -19 -14z m-4950 -28 c-10 -9 -11 -8
-5 6 3 10 9 15 12 12 3 -3 0 -11 -7 -18z m5812 8 c-3 -9 -8 -14 -10 -11 -3 3
-2 9 2 15 9 16 15 13 8 -4z m-7146 -29 c4 -7 15 -16 23 -19 8 -4 4 -5 -10 -4
-15 1 -24 8 -22 16 2 9 -3 11 -13 7 -9 -3 -13 -2 -10 4 9 14 23 12 32 -4z
m6003 -26 c11 -7 5 -8 -20 -4 -43 8 -51 14 -19 14 13 0 31 -5 39 -10z m-4703
-32 c-3 -7 -5 -2 -5 12 0 14 2 19 5 13 2 -7 2 -19 0 -25z m4653 18 c0 -2 -11
-6 -25 -8 -13 -3 -22 -1 -19 3 5 9 44 13 44 5z m117 -2 c-3 -3 -12 -4 -19 -1
-8 3 -5 6 6 6 11 1 17 -2 13 -5z m1143 -60 c0 -8 -4 -12 -10 -9 -5 3 -10 10
-10 16 0 5 5 9 10 9 6 0 10 -7 10 -16z m30 -98 c0 -20 -38 -27 -45 -8 -3 8 -3
17 0 20 3 3 5 -1 5 -9 1 -10 4 -9 11 4 11 19 29 14 29 -7z m-6771 -33 c116
-89 255 -157 471 -232 l76 -26 -13 -104 c-7 -57 -31 -170 -53 -250 -61 -227
-81 -350 -87 -511 -4 -119 -1 -163 15 -246 69 -348 270 -584 656 -770 l98 -48
-33 -12 c-121 -41 -327 -167 -461 -280 -151 -129 -256 -253 -428 -507 -87
-129 -139 -182 -155 -158 -3 5 4 11 16 13 12 2 27 11 33 22 6 10 24 32 39 49
38 41 50 64 37 72 -17 11 -11 24 9 20 17 -3 32 13 35 38 1 4 7 12 15 16 8 5
11 16 7 26 -6 16 -4 16 11 4 15 -12 16 -12 11 2 -4 11 2 25 17 39 14 13 22 27
18 33 -3 6 -1 7 5 3 16 -10 15 0 -4 29 -12 18 -13 28 -4 44 13 25 14 25 44 6
20 -13 25 -14 35 -1 8 10 9 16 1 21 -5 3 -10 12 -10 18 0 7 5 4 11 -6 6 -9 15
-15 20 -12 5 4 7 10 4 15 -3 4 2 11 11 14 8 3 12 11 8 17 -4 7 -3 9 3 6 5 -4
24 10 41 29 27 30 30 39 21 56 -9 16 -8 19 3 15 7 -2 12 -10 10 -16 -1 -6 2
-11 6 -11 14 0 30 44 27 74 -2 15 -1 25 2 22 4 -3 13 0 22 6 12 10 12 8 -1 -8
-27 -31 -21 -41 8 -13 22 21 24 21 18 4 -6 -17 -4 -17 20 5 15 13 22 26 17 28
-13 4 -4 22 10 22 6 0 7 -4 4 -10 -10 -16 5 -12 23 6 21 22 24 44 5 44 -9 0
-13 -6 -10 -14 4 -10 1 -13 -9 -9 -14 5 -14 8 0 22 12 12 20 13 34 5 22 -14
51 -6 31 8 -11 8 -10 9 3 4 10 -3 20 -1 23 4 3 5 -2 10 -10 12 -10 2 -6 7 11
15 22 10 24 10 14 -3 -15 -17 -1 -18 20 -1 19 15 24 37 8 37 -6 0 -9 3 -6 6 4
3 16 1 27 -6 15 -8 21 -8 21 0 0 6 5 8 10 5 6 -3 13 1 16 9 3 9 14 16 24 16 9
0 29 9 42 20 14 10 28 16 32 13 3 -3 6 -1 6 5 0 5 -6 13 -12 16 -7 3 -3 3 8 1
26 -7 77 11 70 24 -4 5 4 7 16 3 13 -3 19 -1 15 5 -4 6 -1 11 6 10 6 0 21 1
32 2 19 2 20 2 1 16 -14 10 -24 11 -38 4 -10 -6 -24 -8 -31 -5 -7 2 -5 5 5 5
9 1 20 6 24 13 5 8 0 9 -14 6 -12 -4 -20 -3 -17 2 7 11 -24 22 -37 13 -6 -3
-8 -1 -5 4 4 6 -1 14 -10 17 -9 4 -19 2 -22 -3 -4 -6 -12 -6 -21 -1 -12 8 -11
10 5 10 17 0 17 2 5 10 -8 5 -24 7 -35 5 -11 -3 -14 -2 -7 1 20 9 14 27 -8 21
-11 -3 -18 -2 -15 3 7 11 -74 62 -87 54 -6 -4 -8 -3 -5 3 11 18 -36 43 -57 31
-13 -7 -17 -7 -12 0 3 6 2 13 -4 17 -6 4 -8 10 -5 15 3 5 -4 11 -15 15 -11 3
-20 12 -20 20 0 7 -9 15 -20 18 -11 3 -20 12 -20 21 0 9 -7 16 -15 16 -9 0
-20 12 -26 27 -7 20 -12 24 -18 14 -5 -8 -14 -10 -20 -7 -6 4 -9 12 -5 17 3 5
10 7 15 4 5 -4 9 -2 9 4 0 5 -8 15 -17 20 -10 6 -14 11 -9 11 5 0 3 6 -4 14
-6 8 -18 12 -26 9 -8 -3 -14 0 -14 7 0 6 5 8 10 5 18 -11 11 10 -15 45 -14 19
-25 40 -25 47 0 8 -7 16 -15 19 -8 4 -15 14 -15 23 0 10 -11 48 -24 86 -18 53
-25 63 -28 45 -2 -14 -4 4 -5 40 0 36 -6 78 -12 93 -16 42 -13 260 5 389 9 62
18 127 19 143 2 17 4 30 5 30 1 0 4 18 6 39 1 22 8 42 14 46 6 4 13 26 16 51
3 24 11 50 17 57 7 9 11 50 11 106 -1 61 1 79 6 53 9 -49 24 -63 17 -14 -3 20
-2 37 4 37 5 0 9 8 9 18 0 13 -2 14 -9 4 -5 -8 -6 8 -3 37 3 34 1 51 -7 51 -6
0 -11 7 -11 16 0 27 28 -3 33 -34 3 -22 4 -20 6 9 1 38 -10 49 -51 49 -10 0
-26 7 -34 15 -20 20 -34 19 -35 -2 0 -15 -2 -14 -9 3 -8 21 -63 48 -74 37 -3
-4 -6 -1 -6 6 0 8 -8 10 -22 6 -18 -5 -20 -4 -8 4 9 6 10 11 3 11 -6 0 -19 3
-29 7 -12 4 -15 3 -10 -5 4 -7 2 -12 -4 -12 -7 0 -10 6 -8 12 6 18 -42 42 -56
28 -16 -16 -26 -12 -26 10 0 11 -5 20 -11 20 -5 0 -7 -4 -4 -10 3 -5 2 -10 -4
-10 -5 0 -13 5 -16 10 -3 6 -1 10 6 10 7 0 9 3 5 8 -4 4 -18 7 -29 7 -13 0
-21 6 -19 13 1 7 -6 15 -15 19 -10 4 -21 11 -25 17 -4 6 -15 3 -30 -9 l-23
-20 18 22 c13 15 15 23 7 28 -7 4 -16 1 -21 -6 -10 -16 -25 -4 -31 26 -4 22
-8 22 -82 4 -27 -6 -99 -10 -167 -8 -97 3 -116 2 -102 -8 16 -12 16 -13 0 -13
-22 0 -22 -27 1 -33 9 -2 4 -3 -13 -2 -36 3 -57 -4 -50 -15 3 -4 -2 -25 -11
-46 -10 -23 -13 -51 -10 -73 4 -24 3 -30 -3 -16 -9 22 -15 0 -47 -180 -18
-101 -42 -307 -37 -315 2 -2 8 2 13 10 6 8 10 11 10 6 0 -5 -7 -17 -16 -27
-13 -15 -16 -53 -16 -269 0 -164 4 -255 11 -264 6 -7 8 -15 5 -19 -3 -3 0 -62
7 -131 7 -70 17 -120 21 -113 4 6 5 -3 2 -20 -4 -18 -3 -33 2 -33 5 0 10 -24
10 -53 1 -28 9 -81 17 -117 9 -36 24 -100 33 -144 16 -68 20 -75 28 -55 8 16
7 24 -2 27 -6 2 -12 13 -12 25 0 17 2 19 9 8 7 -11 10 -9 14 10 2 13 3 -1 1
-31 -2 -30 -4 -59 -5 -65 -3 -61 41 -192 62 -180 6 4 5 -2 -3 -14 -11 -17 -10
-25 7 -53 10 -18 18 -34 17 -35 -7 -9 0 -33 8 -28 5 3 7 0 5 -8 -7 -17 54
-177 70 -183 6 -3 12 -22 13 -42 l0 -37 -20 45 c-108 244 -212 603 -262 910
-39 238 -50 365 -50 610 -1 353 36 624 126 928 17 59 24 72 37 66 33 -15 235
-15 286 -1 73 21 84 20 124 -10z m5111 -28 c-7 -9 -15 -13 -19 -10 -3 3 1 10
9 15 21 14 24 12 10 -5z m-5325 -5 c19 -5 6 -6 -35 -3 -36 3 -67 7 -69 9 -8 7
73 2 104 -6z m132 4 c-3 -3 -12 -4 -19 -1 -8 3 -5 6 6 6 11 1 17 -2 13 -5z
m-142 -34 c-11 -5 -38 -8 -60 -8 l-40 1 45 7 c64 10 78 10 55 0z m150 0 c8
-12 -42 -12 -70 0 -16 7 -11 9 22 9 23 1 45 -3 48 -9z m5108 -19 c-4 -16 -8
-17 -18 -8 -10 10 -10 13 4 19 9 4 17 7 18 7 0 1 -1 -8 -4 -18z m64 13 c-3 -3
-12 -4 -19 -1 -8 3 -5 6 6 6 11 1 17 -2 13 -5z m-5500 -76 c-3 -7 -5 -2 -5 12
0 14 2 19 5 13 2 -7 2 -19 0 -25z m-30 -13 c-15 -16 -22 -11 -13 10 3 9 10 13
16 10 6 -4 5 -11 -3 -20z m543 9 c0 -2 -7 -4 -15 -4 -8 0 -15 4 -15 10 0 5 7
7 15 4 8 -4 15 -8 15 -10z m4887 -21 c-3 -10 -5 -4 -5 12 0 17 2 24 5 18 2 -7
2 -21 0 -30z m34 -20 c-10 -17 -10 -16 -11 3 0 23 13 41 18 25 2 -6 -1 -18 -7
-28z m1869 -153 c48 -246 55 -332 55 -660 0 -362 -19 -540 -90 -851 -84 -367
-250 -789 -424 -1078 -28 -46 -51 -86 -51 -88 0 -6 -110 -164 -167 -239 -127
-171 -487 -542 -662 -683 -104 -84 -195 -151 -205 -151 -17 0 -4 82 20 124 21
38 27 64 31 144 7 128 -11 200 -78 304 -30 47 -60 110 -74 156 -32 108 -77
214 -157 371 -55 109 -64 130 -44 118 18 -12 26 -13 35 -4 9 9 11 7 6 -8 -7
-20 -6 -20 9 -1 13 17 16 17 16 4 0 -9 -6 -18 -12 -20 -10 -4 -10 -10 0 -32 7
-15 8 -24 2 -21 -14 9 -12 -3 5 -33 8 -15 19 -40 25 -55 5 -16 14 -25 20 -22
5 3 10 4 10 1 0 -2 3 -13 6 -23 5 -15 4 -15 -5 -3 -16 23 -12 -1 5 -30 11 -19
14 -20 10 -5 -3 11 -1 27 4 35 7 11 9 2 8 -32 0 -25 5 -61 13 -79 13 -33 13
-33 21 -9 6 20 7 19 3 -7 -4 -27 -2 -31 13 -27 13 5 14 4 3 -4 -11 -8 -11 -18
0 -60 7 -28 16 -49 20 -47 4 3 7 -1 6 -8 -1 -39 6 -65 24 -87 17 -21 20 -22
15 -5 -6 18 -5 19 7 3 9 -12 17 -14 24 -7 13 13 14 -22 0 -39 -7 -8 -2 -24 17
-52 14 -22 26 -46 26 -55 0 -8 4 -15 8 -15 11 0 10 4 21 -155 5 -71 9 -131 10
-132 1 -2 9 -3 19 -3 16 -1 16 -1 0 -14 -10 -7 -14 -17 -10 -21 4 -5 1 -5 -6
-1 -7 4 -10 11 -7 16 3 4 1 19 -5 32 -8 19 -10 20 -8 3 0 -11 -9 -42 -20 -68
-31 -68 -36 -93 -21 -102 8 -6 10 -4 4 5 -5 8 -4 11 2 7 6 -4 24 3 39 15 43
32 52 42 32 35 -11 -4 -17 -2 -15 6 1 7 -3 11 -10 10 -7 -2 -10 4 -6 13 3 8 8
12 11 10 3 -3 12 0 21 6 13 10 14 10 4 -2 -15 -16 -17 -34 -4 -26 5 4 11 1 13
-5 2 -7 15 -1 32 15 16 14 33 26 39 26 5 0 4 7 -3 15 -17 20 -5 32 15 15 12
-10 16 -9 21 5 4 10 1 21 -7 25 -7 5 -10 13 -5 17 5 4 11 2 13 -4 3 -7 13 -13
22 -13 22 0 55 35 46 49 -4 7 0 8 10 5 22 -9 58 29 42 45 -15 15 -1 26 17 12
11 -9 20 -4 44 24 17 19 37 35 43 35 7 0 9 3 5 7 -4 5 -13 8 -18 8 -6 0 -13 7
-15 15 -3 9 -1 11 4 5 16 -19 33 -15 68 19 33 32 47 54 26 41 -17 -10 -21 12
-5 25 12 10 17 11 27 1 9 -10 8 -11 -8 -6 -15 5 -17 5 -6 -3 11 -8 24 -1 55
28 35 35 38 41 26 57 -12 15 -12 16 0 6 17 -15 34 -17 25 -3 -3 6 0 10 8 10
16 0 30 27 21 41 -10 17 7 31 22 18 8 -7 14 -7 14 -1 0 5 17 27 38 47 21 21
29 35 19 31 -11 -3 -16 -2 -12 5 4 5 12 8 18 6 6 -2 26 12 43 31 25 27 31 42
28 65 -3 27 -2 28 10 12 9 -13 15 -15 20 -7 4 7 4 16 1 22 -3 5 0 7 8 4 13 -5
31 27 28 49 -1 4 2 6 6 6 21 -3 22 3 8 30 -17 33 -5 50 16 24 10 -12 10 -14 2
-9 -15 8 -16 5 -7 -19 6 -14 8 -13 21 5 8 11 11 25 7 32 -4 6 -3 8 4 4 13 -8
44 33 35 47 -4 6 -1 7 7 2 10 -6 12 -4 7 9 -4 9 -3 14 2 11 5 -3 13 5 17 17 3
12 13 29 21 37 13 13 13 16 -3 28 -16 12 -16 13 -1 14 36 3 40 4 45 17 2 8 -2
10 -14 5 -12 -4 -15 -3 -10 6 5 7 15 10 23 7 11 -5 13 -2 9 9 -3 9 -2 13 4 10
17 -11 11 7 -7 22 -16 13 -16 13 5 3 19 -9 22 -8 22 9 0 10 7 21 15 25 21 8
19 36 -2 37 -15 1 -15 2 -2 6 11 2 15 12 12 27 -3 13 0 27 6 30 17 11 24 -20
11 -44 -7 -13 -8 -20 -2 -16 9 5 42 62 42 72 0 2 -7 1 -15 -2 -8 -4 -15 -1
-15 5 0 6 4 10 9 9 17 -5 51 44 45 66 -3 14 5 36 25 64 17 23 31 46 31 51 0 5
7 21 15 37 8 16 13 37 11 49 -2 11 -1 14 1 8 7 -21 25 -14 18 7 -3 11 -2 28 4
37 8 14 11 15 11 3 1 -8 12 14 25 50 14 36 23 71 20 78 -3 7 0 10 5 7 6 -4 8
7 5 27 -4 22 -3 27 3 14 6 -14 14 2 35 70 15 49 28 103 30 121 1 17 5 29 10
26 4 -2 7 3 7 11 0 8 -4 18 -10 21 -5 3 -10 14 -9 23 0 12 3 11 9 -5 5 -13 12
-23 15 -23 2 0 4 10 4 23 -1 12 5 36 12 53 7 18 9 39 4 50 -6 15 -10 10 -16
-25 -12 -60 -15 -60 -15 3 1 30 4 49 8 43 4 -7 8 -8 8 -3 0 5 6 3 14 -3 14
-11 13 -12 47 162 5 26 9 64 9 84 0 20 5 52 12 70 9 25 9 41 1 62 -8 23 -8 28
2 25 10 -4 15 17 22 83 11 118 7 676 -5 733 l-10 45 -1 -38 c-1 -21 -5 -36
-10 -32 -5 3 -11 0 -14 -7 -2 -7 -2 -4 0 7 23 106 23 115 3 230 -11 63 -24
123 -28 133 -5 9 -12 42 -15 72 -9 88 10 25 43 -140z m-7333 118 c-3 -8 -6 -5
-6 6 -1 11 2 17 5 13 3 -3 4 -12 1 -19z m719 10 c-9 -5 -23 -5 -32 0 -12 6 -7
9 16 9 23 0 28 -3 16 -9z m501 -10 c-3 -8 -6 -5 -6 6 -1 11 2 17 5 13 3 -3 4
-12 1 -19z m6050 -40 c-3 -7 -5 -2 -5 12 0 14 2 19 5 13 2 -7 2 -19 0 -25z
m-1804 -17 c-4 -15 -8 -19 -13 -10 -5 6 -3 18 3 24 16 17 17 14 10 -14z
m-4553 -11 c0 -5 -2 -10 -4 -10 -3 0 -8 5 -11 10 -3 6 -1 10 4 10 6 0 11 -4
11 -10z m-962 -67 c0 -36 -2 -43 -10 -30 -8 15 -3 77 6 77 2 0 3 -21 4 -47z
m1249 15 c-3 -7 -5 -2 -5 12 0 14 2 19 5 13 2 -7 2 -19 0 -25z m-280 -25 c-3
-10 -5 -4 -5 12 0 17 2 24 5 18 2 -7 2 -21 0 -30z m4627 12 c-6 -16 -24 -21
-24 -7 0 11 11 22 21 22 5 0 6 -7 3 -15z m-4127 -97 c-2 -13 -4 -3 -4 22 0 25
2 35 4 23 2 -13 2 -33 0 -45z m2478 42 c137 -12 352 -42 503 -71 383 -74 662
-288 759 -584 35 -107 43 -279 19 -388 -40 -180 -153 -336 -329 -456 -162
-110 -498 -230 -818 -290 -432 -83 -974 -90 -1389 -20 -379 65 -659 225 -794
455 -77 132 -91 185 -91 354 1 136 3 150 32 232 42 119 102 216 190 309 126
131 263 214 463 277 221 70 695 162 925 181 158 12 391 12 530 1z m3422 -52
c-3 -8 -6 -5 -6 6 -1 11 2 17 5 13 3 -3 4 -12 1 -19z m-7387 -13 c-8 -9 -10
-27 -6 -48 4 -23 3 -28 -4 -17 -11 17 -10 81 2 74 4 -3 8 0 8 7 0 7 3 9 6 6 4
-4 1 -13 -6 -22z m17 -67 c-3 -8 -6 -5 -6 6 -1 11 2 17 5 13 3 -3 4 -12 1 -19z
m5672 -24 c-9 -22 -13 -25 -16 -12 -3 10 2 24 9 32 18 20 20 13 7 -20z m-5712
4 c-3 -8 -6 -5 -6 6 -1 11 2 17 5 13 3 -3 4 -12 1 -19z m33 -59 c6 -11 9 -28
7 -37 -3 -12 -5 -11 -6 6 -1 12 -7 22 -16 22 -8 0 -15 7 -15 15 0 22 17 18 30
-6z m923 2 c2 -10 1 -25 -4 -32 -6 -10 -9 -4 -9 19 0 36 5 42 13 13z m280 4
c-3 -9 -8 -14 -10 -11 -3 3 -2 9 2 15 9 16 15 13 8 -4z m4484 -17 c-3 -8 -6
-5 -6 6 -1 11 2 17 5 13 3 -3 4 -12 1 -19z m-4790 -120 c-3 -8 -6 -5 -6 6 -1
11 2 17 5 13 3 -3 4 -12 1 -19z m4873 1 c0 -11 -4 -18 -10 -14 -5 3 -7 12 -3
20 7 21 13 19 13 -6z m1647 -31 c-3 -8 -6 -5 -6 6 -1 11 2 17 5 13 3 -3 4 -12
1 -19z m-7407 2 c0 -5 -5 -10 -11 -10 -5 0 -7 5 -4 10 3 6 8 10 11 10 2 0 4
-4 4 -10z m5760 -49 l0 -26 -15 29 c-19 36 -19 52 0 36 8 -7 15 -24 15 -39z
m-4643 7 c-3 -7 -5 -2 -5 12 0 14 2 19 5 13 2 -7 2 -19 0 -25z m6250 -30 c-2
-13 -4 -3 -4 22 0 25 2 35 4 23 2 -13 2 -33 0 -45z m20 -140 c-2 -24 -4 -5 -4
42 0 47 2 66 4 43 2 -24 2 -62 0 -85z m-6090 50 c-3 -7 -5 -2 -5 12 0 14 2 19
5 13 2 -7 2 -19 0 -25z m20 -30 c-3 -8 -6 -5 -6 6 -1 11 2 17 5 13 3 -3 4 -12
1 -19z m-210 -65 c-3 -10 -5 -2 -5 17 0 19 2 27 5 18 2 -10 2 -26 0 -35z m-18
-8 c0 -5 -4 -3 -9 5 -5 8 -9 22 -9 30 0 16 17 -16 18 -35z m-252 -7 c-3 -8 -6
-5 -6 6 -1 11 2 17 5 13 3 -3 4 -12 1 -19z m-9 -108 c-1 -29 -2 -26 -8 15 -11
69 -10 126 1 65 4 -25 7 -61 7 -80z m19 -12 c-2 -13 -4 -3 -4 22 0 25 2 35 4
23 2 -13 2 -33 0 -45z m240 0 c-2 -13 -4 -3 -4 22 0 25 2 35 4 23 2 -13 2 -33
0 -45z m6280 0 c-2 -13 -4 -3 -4 22 0 25 2 35 4 23 2 -13 2 -33 0 -45z m-7367
-28 c0 -5 -2 -10 -4 -10 -3 0 -8 5 -11 10 -3 6 -1 10 4 10 6 0 11 -4 11 -10z
m841 -55 c6 14 7 9 3 -15 -4 -19 -10 -42 -16 -50 -6 -10 -7 -4 -3 18 4 19 3
32 -4 32 -6 0 -7 8 -3 18 6 15 7 15 11 -3 l4 -20 8 20z m476 -22 c-3 -10 -5
-4 -5 12 0 17 2 24 5 18 2 -7 2 -21 0 -30z m-26 0 c-12 -20 -14 -14 -5 12 4 9
9 14 11 11 3 -2 0 -13 -6 -23z m6088 -55 c-1 -67 -3 -75 -9 -44 -7 35 -2 126
6 126 2 0 3 -37 3 -82z m-7412 -110 c-3 -7 -5 -2 -5 12 0 14 2 19 5 13 2 -7 2
-19 0 -25z m1138 -33 c9 -30 21 -54 28 -52 6 1 12 -11 12 -27 1 -16 6 -31 13
-34 7 -2 10 -7 8 -11 -10 -16 150 -219 162 -206 3 3 -3 15 -14 27 -17 21 -16
21 9 -1 15 -14 26 -30 25 -37 -4 -19 113 -105 133 -99 10 4 31 -1 46 -10 15
-9 19 -13 8 -10 -11 4 -29 9 -40 12 l-20 4 20 -16 c63 -52 435 -201 484 -193
9 1 25 -3 36 -9 11 -6 38 -14 59 -17 l39 -6 -38 25 c-27 19 -40 23 -45 15 -5
-9 -9 -9 -14 -1 -4 6 -2 11 5 11 8 0 8 4 -1 15 -7 8 -17 15 -21 15 -12 0 -80
62 -75 67 2 3 35 -21 73 -51 37 -31 100 -72 138 -92 39 -20 62 -33 52 -30 -10
3 -48 11 -85 16 -221 35 -465 128 -642 245 -182 120 -336 316 -375 478 -13 50
4 28 20 -28z m-1112 -119 c-5 -18 -8 5 -9 72 l-1 97 10 -72 c5 -40 5 -84 0
-97z m7388 90 c-6 -13 -20 23 -20 54 0 21 2 20 13 -10 7 -19 10 -39 7 -44z
m-1621 9 c0 -8 -7 -15 -15 -15 -8 0 -15 5 -15 11 0 5 5 7 10 4 6 -3 10 -1 10
4 0 6 2 11 5 11 3 0 5 -7 5 -15z m-4865 -58 c0 -23 6 -52 14 -64 12 -20 11
-23 -2 -23 -9 0 -17 -8 -19 -17 -2 -10 -4 19 -4 65 -1 45 2 82 5 82 3 0 6 -19
6 -43z m6472 -59 c-2 -13 -4 -3 -4 22 0 25 2 35 4 23 2 -13 2 -33 0 -45z
m-1687 -13 c0 -5 -5 -3 -10 5 -5 8 -10 20 -10 25 0 6 5 3 10 -5 5 -8 10 -19
10 -25z m-4404 -63 c0 -10 -6 -19 -13 -19 -8 0 -9 6 -2 19 5 10 11 18 12 18 2
0 3 -8 3 -18z m-291 -41 c3 -5 2 -12 -3 -15 -5 -3 -9 1 -9 9 0 17 3 19 12 6z
m-938 -63 c-3 -8 -6 -5 -6 6 -1 11 2 17 5 13 3 -3 4 -12 1 -19z m7260 0 c-3
-8 -6 -5 -6 6 -1 11 2 17 5 13 3 -3 4 -12 1 -19z m-1730 -13 c-23 -22 -33 -18
-12 5 10 11 20 18 23 16 2 -3 -3 -12 -11 -21z m-5537 -32 c0 -21 -3 -24 -9
-14 -5 8 -7 20 -4 28 8 21 13 15 13 -14z m1400 -3 c0 -5 -5 -10 -11 -10 -5 0
-7 5 -4 10 3 6 8 10 11 10 2 0 4 -4 4 -10z m4070 -50 c0 -5 -4 -10 -10 -10 -5
0 -10 5 -10 10 0 6 5 10 10 10 6 0 10 -4 10 -10z m-4405 -10 c4 -6 -5 -10 -19
-10 -14 0 -26 5 -26 10 0 6 9 10 19 10 11 0 23 -4 26 -10z m30 -30 c3 -5 1
-10 -4 -10 -6 0 -11 5 -11 10 0 6 2 10 4 10 3 0 8 -4 11 -10z m665 -10 c0 -5
-4 -10 -10 -10 -5 0 -10 5 -10 10 0 6 5 10 10 10 6 0 10 -4 10 -10z m-225 -10
c-3 -5 -1 -10 6 -10 7 0 10 -3 6 -6 -9 -9 -28 6 -22 17 4 5 8 9 11 9 3 0 2 -4
-1 -10z m141 -71 c8 -14 -10 -11 -32 6 -18 13 -18 14 4 8 12 -3 25 -9 28 -14z
m-390 -34 c18 -13 18 -14 -4 -8 -12 3 -25 9 -28 14 -8 14 10 11 32 -6z m-1192
-30 c-25 -19 -38 -19 -22 0 7 8 19 14 27 15 11 0 9 -4 -5 -15z m1806 -9 c0 -3
-4 -8 -10 -11 -5 -3 -10 -1 -10 4 0 6 5 11 10 11 6 0 10 -2 10 -4z m-1791 -46
c11 -24 11 -24 -3 -6 -9 11 -16 24 -16 30 0 12 5 7 19 -24z m1261 5 c0 -8 -8
-15 -17 -14 -11 0 -13 3 -5 6 6 2 10 9 6 14 -3 5 0 9 5 9 6 0 11 -7 11 -15z
m5822 -32 c-3 -17 -7 -22 -10 -13 -3 8 -10 21 -16 29 -8 11 -8 13 2 7 7 -4 12
-2 12 4 0 6 4 9 9 6 4 -3 6 -18 3 -33z m-7085 -45 c-3 -8 -6 -5 -6 6 -1 11 2
17 5 13 3 -3 4 -12 1 -19z m4521 -119 c24 -55 41 -103 39 -106 -3 -2 -8 6 -12
19 -4 13 -23 56 -43 96 -23 50 -39 71 -48 68 -8 -3 -14 -1 -14 3 0 8 15 18 30
20 3 0 24 -45 48 -100z m387 46 c39 -30 82 -69 98 -87 15 -18 27 -27 27 -21 0
5 -12 22 -26 36 -14 14 -23 31 -19 37 7 12 52 14 59 2 3 -5 -9 -7 -27 -5 -32
4 -32 4 -12 -14 26 -24 47 -62 41 -72 -3 -4 9 -21 26 -37 17 -16 29 -22 26
-13 -4 9 2 20 12 27 18 11 18 10 4 -23 -9 -21 -10 -36 -4 -40 6 -3 10 -1 10 5
0 6 11 3 26 -6 14 -10 23 -23 20 -31 -3 -8 -1 -24 5 -35 11 -21 12 -21 25 3
10 18 13 20 14 7 0 -9 -5 -20 -10 -23 -11 -7 3 -39 25 -62 10 -9 15 -9 24 0
10 9 11 6 6 -16 -6 -22 -4 -26 9 -21 12 5 15 2 10 -10 -4 -10 -1 -16 7 -16 7
0 9 -3 6 -6 -7 -8 30 -64 41 -63 29 4 37 -3 37 -35 0 -48 -11 -53 -30 -15 -17
33 -79 124 -145 214 -71 95 -200 234 -277 296 -101 81 -99 79 -87 79 5 0 41
-25 79 -55z m-8 40 c24 -25 7 -30 -18 -6 -13 12 -17 21 -10 21 7 0 19 -7 28
-15z m67 0 c-7 -16 -24 -21 -24 -6 0 8 7 13 27 20 1 1 0 -6 -3 -14z m-3727
-19 c0 -8 -6 -12 -14 -9 -7 3 -10 9 -7 14 8 14 21 11 21 -5z m3186 8 c-7 -3
-9 -13 -6 -22 4 -14 3 -15 -6 -2 -17 24 -19 9 -9 -77 5 -48 5 -102 0 -130 -9
-46 -9 -45 -8 27 0 41 -3 105 -7 143 l-9 67 29 -1 c15 0 23 -3 16 -5z m-2655
-32 c-11 -2 -15 -9 -11 -20 4 -13 2 -12 -10 3 -23 28 -21 33 11 27 18 -4 21
-7 10 -10z m2522 -119 c0 -123 -17 -232 -49 -316 l-11 -28 -52 42 c-29 23 -90
60 -136 81 -139 66 -252 62 -390 -12 -29 -16 -52 -25 -50 -21 2 5 59 73 128
153 l125 144 200 41 c110 22 208 41 218 42 15 1 17 -11 17 -126z m-2440 107
c20 -6 21 -8 5 -8 -11 0 -31 4 -45 8 -20 6 -21 8 -5 8 11 0 31 -4 45 -8z
m2600 0 c0 -5 -5 -10 -11 -10 -5 0 -7 5 -4 10 3 6 8 10 11 10 2 0 4 -4 4 -10z
m280 -34 c212 -125 409 -365 579 -704 33 -65 73 -152 89 -193 29 -72 72 -203
72 -219 0 -4 -54 -10 -119 -13 -65 -4 -165 -16 -222 -27 -56 -11 -105 -18
-107 -15 -3 2 -15 37 -29 77 -13 40 -47 120 -74 178 -44 93 -53 121 -74 255
-14 82 -34 188 -45 235 -24 97 -100 327 -136 408 -13 30 -24 56 -24 58 0 10
21 1 90 -40z m230 34 c0 -5 -2 -10 -4 -10 -3 0 -8 5 -11 10 -3 6 -1 10 4 10 6
0 11 -4 11 -10z m-3338 -47 c46 -67 114 -212 148 -313 59 -178 110 -423 110
-535 0 -112 -62 -249 -169 -373 -76 -87 -98 -101 -76 -49 61 146 99 562 51
562 -5 0 -17 -36 -27 -81 -14 -64 -95 -370 -115 -432 -2 -8 -18 6 -40 35 -82
109 -182 196 -298 257 -127 67 -365 126 -513 126 -35 0 -63 3 -63 6 0 18 204
286 307 401 79 89 218 207 338 286 98 65 281 158 305 154 8 -1 27 -21 42 -44z
m-1552 22 c0 -8 -2 -15 -4 -15 -2 0 -6 7 -10 15 -3 8 -1 15 4 15 6 0 10 -7 10
-15z m1017 9 c-3 -3 -12 -4 -19 -1 -8 3 -5 6 6 6 11 1 17 -2 13 -5z m836 -1
c-7 -2 -19 -2 -25 0 -7 3 -2 5 12 5 14 0 19 -2 13 -5z m5087 -2 c0 -5 3 -18 6
-28 6 -16 5 -16 -9 2 -19 23 -21 35 -7 35 6 0 10 -4 10 -9z m-5017 -8 c-7 -2
-21 -2 -30 0 -10 3 -4 5 12 5 17 0 24 -2 18 -5z m-1942 -25 c11 -21 11 -22 -4
-9 -10 7 -17 17 -17 22 0 15 9 10 21 -13z m1042 15 c-7 -2 -19 -2 -25 0 -7 3
-2 5 12 5 14 0 19 -2 13 -5z m962 -24 c14 -21 -1 -17 -25 8 -23 24 -23 25 -3
15 12 -7 25 -17 28 -23z m284 -9 c90 -11 254 -25 365 -31 111 -6 210 -12 221
-15 11 -2 85 -58 165 -125 80 -67 160 -130 178 -141 46 -28 34 -32 -24 -10
-95 38 -199 54 -307 50 -95 -3 -107 -6 -172 -41 -38 -20 -103 -62 -143 -92
-40 -30 -77 -55 -81 -55 -15 0 -209 207 -253 270 -47 68 -128 197 -128 205 0
7 -7 7 179 -15z m4638 -2 c-3 -8 -6 -5 -6 6 -1 11 2 17 5 13 3 -3 4 -12 1 -19z
m-3304 -65 c-25 -32 -84 -115 -130 -185 -45 -71 -86 -128 -91 -128 -4 0 -66
55 -137 121 -72 67 -158 141 -192 166 -35 25 -63 46 -63 48 0 1 37 2 83 0 95
-3 396 12 477 24 108 16 106 18 53 -46z m-1853 6 c12 -23 19 -43 16 -46 -3 -3
-10 6 -16 21 -5 15 -15 36 -20 47 -6 10 -8 19 -6 19 3 0 15 -18 26 -41z m3266
16 c-9 -9 -16 -13 -16 -8 0 12 22 34 28 28 2 -2 -3 -11 -12 -20z m-4999 -37
c-3 -8 -6 -5 -6 6 -1 11 2 17 5 13 3 -3 4 -12 1 -19z m4487 -14 c3 -8 2 -12
-4 -9 -6 3 -10 10 -10 16 0 14 7 11 14 -7z m626 -21 c0 -9 -8 -9 -30 -2 -38
14 -38 16 0 15 16 -1 30 -6 30 -13z m-3340 -38 c0 -5 -5 -3 -10 5 -5 8 -10 20
-10 25 0 6 5 3 10 -5 5 -8 10 -19 10 -25z m2815 -290 c46 -185 62 -265 49
-252 -5 5 -9 14 -9 20 -2 36 -18 97 -26 97 -6 0 -9 6 -7 13 1 6 -2 37 -6 67
-6 38 -10 49 -15 36 -4 -11 -7 1 -7 32 0 28 -6 57 -12 65 -7 8 -12 19 -10 23
4 17 -24 114 -32 109 -4 -3 -8 5 -8 18 1 12 -2 38 -6 57 -12 70 47 -119 89
-285z m-2480 214 c32 -50 75 -111 96 -136 39 -44 51 -65 26 -44 -10 8 -17 7
-27 -2 -12 -10 -12 -9 -3 3 14 19 -8 55 -24 39 -6 -6 -9 -2 -9 13 1 17 -5 22
-26 22 -14 1 -30 5 -35 10 -5 5 -3 6 5 2 6 -4 12 -2 12 3 0 6 -5 11 -11 11 -8
0 -8 4 0 14 9 11 10 20 1 35 -6 12 -13 21 -16 21 -3 0 -2 -4 1 -10 3 -5 1 -10
-4 -10 -6 0 -10 10 -9 23 1 13 -8 40 -21 60 -12 20 -21 37 -18 37 2 0 30 -41
62 -91z m4722 59 c-3 -8 -6 -5 -6 6 -1 11 2 17 5 13 3 -3 4 -12 1 -19z m-6779
-33 l4 -20 -17 20 c-16 20 -16 19 -9 -5 4 -14 10 -27 14 -30 4 -3 10 -12 14
-20 3 -9 4 -6 2 7 -2 12 1 27 8 32 9 7 12 4 11 -12 0 -12 -4 -28 -8 -35 -6 -8
2 -34 20 -69 17 -36 29 -50 31 -39 3 14 7 12 24 -9 15 -20 18 -29 9 -38 -13
-13 -15 -31 -3 -23 4 2 9 -6 10 -19 1 -13 20 -50 41 -83 22 -33 50 -78 62
-101 21 -40 34 -55 23 -26 -4 8 -1 15 6 15 8 0 10 -9 6 -26 -5 -18 -3 -24 5
-18 8 4 9 3 5 -5 -4 -6 -4 -18 1 -24 4 -7 0 -4 -11 7 -42 47 -228 385 -279
507 -14 35 -14 36 6 35 13 -1 23 -9 25 -21z m4249 3 c-3 -8 -6 -5 -6 6 -1 11
2 17 5 13 3 -3 4 -12 1 -19z m-3543 -7 c3 -5 -1 -14 -8 -20 -11 -9 -16 -9 -22
0 -5 8 -3 9 6 4 10 -6 12 -4 7 8 -7 18 8 24 17 8z m1061 -73 c14 -46 30 -91
36 -100 5 -10 9 -32 10 -50 0 -18 3 -27 6 -20 2 6 9 12 15 12 7 0 6 -5 -1 -14
-11 -13 -2 -76 55 -366 8 -41 15 -82 15 -90 2 -42 32 -150 45 -160 7 -7 12
-16 9 -20 -15 -25 96 -77 141 -66 18 5 24 3 19 -5 -5 -8 -1 -9 14 -5 11 3 30
9 41 12 11 3 20 9 20 14 0 5 7 7 15 4 11 -5 13 -2 9 10 -4 11 -12 15 -23 10
-40 -16 -96 -24 -129 -17 -21 4 -43 6 -51 4 -7 -1 -10 2 -7 8 4 5 -3 12 -14
16 -11 4 -18 11 -15 16 4 5 2 9 -3 9 -6 0 -13 8 -18 18 -10 24 -21 161 -11
155 12 -7 8 22 -5 35 -17 17 5 32 36 25 21 -5 21 -5 1 10 -11 9 -15 17 -10 17
6 0 16 -5 22 -11 8 -8 17 -7 32 3 12 8 19 17 17 19 -12 12 109 6 128 -6 25
-17 39 -10 61 30 l17 30 -7 -38 c-5 -34 -4 -38 12 -35 14 3 17 11 14 33 -1 17
-6 34 -9 40 -4 5 -7 17 -7 25 -1 8 -3 33 -4 55 -2 22 -5 32 -8 23 -2 -10 -9
-18 -14 -18 -6 0 -5 9 2 22 9 16 8 34 -1 77 -11 47 -14 52 -20 31 -4 -15 -6
-1 -6 37 -1 35 1 62 2 60 15 -14 114 -501 114 -557 0 -138 -167 -221 -304
-150 -80 41 -86 59 -161 480 -24 138 -69 325 -101 418 -15 46 -16 52 -10 52 2
0 16 -37 31 -82z m25 51 c0 -6 -4 -7 -10 -4 -5 3 -10 11 -10 16 0 6 5 7 10 4
6 -3 10 -11 10 -16z m2458 -145 c4 2 8 -14 8 -37 0 -23 8 -97 17 -163 10 -71
15 -162 13 -218 -2 -66 0 -96 8 -96 8 0 8 -2 0 -8 -13 -9 2 -72 17 -72 6 0 8
-4 5 -9 -3 -5 10 -23 28 -39 26 -23 49 -32 90 -37 30 -4 59 -4 65 0 6 3 11 1
11 -4 0 -26 -138 -4 -176 28 -49 40 -57 74 -65 281 -4 107 -15 240 -23 294 -9
55 -15 131 -14 170 l2 71 3 -83 c2 -45 7 -81 11 -78z m-2228 125 c0 -5 -4 -9
-10 -9 -5 0 -10 7 -10 16 0 8 5 12 10 9 6 -3 10 -10 10 -16z m-1400 -24 c11
-13 10 -14 -4 -9 -9 3 -16 10 -16 15 0 13 6 11 20 -6z m3837 -7 c-3 -8 -6 -5
-6 6 -1 11 2 17 5 13 3 -3 4 -12 1 -19z m2220 0 c-3 -8 -6 -5 -6 6 -1 11 2 17
5 13 3 -3 4 -12 1 -19z m-2420 -35 c-3 -10 -5 -2 -5 17 0 19 2 27 5 18 2 -10
2 -26 0 -35z m2453 17 c0 -5 -4 -10 -10 -10 -5 0 -10 5 -10 10 0 6 5 10 10 10
6 0 10 -4 10 -10z m-2829 -52 c41 -21 107 -64 148 -98 76 -62 86 -66 111 -50
21 13 28 -10 29 -90 1 -61 0 -65 -21 -66 -13 0 -153 -4 -313 -8 -159 -3 -328
-9 -375 -12 l-86 -5 -11 113 c-6 62 -11 113 -10 113 1 0 56 27 123 58 155 75
196 87 270 84 47 -2 79 -11 135 -39z m586 20 c-3 -8 -6 -5 -6 6 -1 11 2 17 5
13 3 -3 4 -12 1 -19z m-2647 -18 c0 -5 -2 -10 -4 -10 -3 0 -8 5 -11 10 -3 6
-1 10 4 10 6 0 11 -4 11 -10z m39 -39 c-15 -5 -22 6 -14 19 6 9 10 9 16 -1 5
-8 4 -15 -2 -18z m1213 -5 c65 -15 135 -33 155 -40 l38 -13 5 -114 c3 -63 5
-115 5 -115 0 -1 -189 -7 -420 -13 -231 -7 -433 -15 -450 -17 l-30 -6 -20 84
c-11 46 -21 90 -23 98 -2 8 12 0 32 -18 56 -49 78 -44 155 37 71 74 111 101
193 132 70 26 201 20 360 -15z m1427 -15 c-2 -6 -10 2 -17 17 -11 25 -11 25 4
10 9 -9 15 -21 13 -27z m-2359 15 c0 -2 -8 -10 -17 -17 -16 -13 -17 -12 -4 4
13 16 21 21 21 13z m-272 -146 l-1 -45 -7 45 c-4 25 -8 34 -8 21 -1 -13 -5
-22 -8 -19 -3 4 -2 33 2 65 l8 58 7 -40 c4 -22 7 -60 7 -85z m4729 18 c-3 -8
-6 -5 -6 6 -1 11 2 17 5 13 3 -3 4 -12 1 -19z m-2077 -65 c-11 -17 -11 -17 -6
0 3 10 6 24 7 30 0 9 2 9 5 0 3 -7 0 -20 -6 -30z m-210 -8 c0 -8 -4 -15 -10
-15 -5 0 -10 7 -10 15 0 8 5 15 10 15 6 0 10 -7 10 -15z m1077 -7 c-3 -8 -6
-5 -6 6 -1 11 2 17 5 13 3 -3 4 -12 1 -19z m-5117 -43 c0 -4 -9 4 -20 18 -11
14 -20 28 -20 32 0 4 9 -4 20 -18 11 -14 20 -28 20 -32z m1597 33 c-3 -8 -6
-5 -6 6 -1 11 2 17 5 13 3 -3 4 -12 1 -19z m-1647 2 c0 -5 -4 -10 -10 -10 -5
0 -10 5 -10 10 0 6 5 10 10 10 6 0 10 -4 10 -10z m165 -30 c-5 -8 -11 -8 -17
-2 -6 6 -7 16 -3 22 5 8 11 8 17 2 6 -6 7 -16 3 -22z m3954 -64 c1 -57 -5 -40
-12 29 -3 37 -2 51 3 35 4 -14 8 -43 9 -64z m191 64 c0 -5 -4 -10 -10 -10 -5
0 -10 5 -10 10 0 6 5 10 10 10 6 0 10 -4 10 -10z m2010 -10 c0 -5 -5 -10 -11
-10 -5 0 -7 5 -4 10 3 6 8 10 11 10 2 0 4 -4 4 -10z m-2110 -30 c0 -5 -5 -10
-11 -10 -5 0 -7 5 -4 10 3 6 8 10 11 10 2 0 4 -4 4 -10z m-2200 -45 c0 -14 -4
-25 -9 -25 -4 0 -6 11 -3 25 2 14 6 25 8 25 2 0 4 -11 4 -25z m2263 18 c-13
-2 -33 -2 -45 0 -13 2 -3 4 22 4 25 0 35 -2 23 -4z m66 -28 c6 3 11 0 11 -8 0
-8 7 -21 17 -28 15 -13 16 -10 10 26 -5 32 -2 28 13 -20 30 -89 37 -198 16
-229 -16 -25 -93 -72 -103 -63 -2 3 5 8 16 12 12 3 21 11 21 16 0 12 -17 12
-25 -1 -4 -6 -9 -8 -13 -6 -4 2 -26 1 -48 -3 -28 -5 -50 -4 -65 5 -13 7 -28
10 -32 7 -5 -3 -17 4 -28 16 -11 12 -17 21 -13 21 3 0 -1 12 -11 26 -11 17
-18 51 -19 98 -2 39 0 60 4 46 l6 -25 9 25 c11 35 46 80 62 80 7 0 13 5 13 11
0 7 21 10 60 7 35 -2 60 1 60 7 1 6 7 2 15 -9 7 -10 18 -15 24 -11z m-2622
-27 c-3 -8 -6 -5 -6 6 -1 11 2 17 5 13 3 -3 4 -12 1 -19z m2380 -5 c1 -19 -1
-22 -8 -12 -11 17 -12 39 -1 39 4 0 8 -12 9 -27z m33 13 c0 -3 -4 -8 -10 -11
-5 -3 -10 -1 -10 4 0 6 5 11 10 11 6 0 10 -2 10 -4z m-2197 -13 c-7 -2 -19 -2
-25 0 -7 3 -2 5 12 5 14 0 19 -2 13 -5z m-246 -35 c-3 -7 -5 -2 -5 12 0 14 2
19 5 13 2 -7 2 -19 0 -25z m2277 -78 c8 -130 21 -166 76 -213 51 -43 113 -61
210 -61 61 0 86 5 135 27 33 16 72 39 86 53 15 14 29 22 32 17 6 -10 44 -136
67 -227 36 -138 73 -399 83 -593 l3 -63 -297 0 -297 0 6 23 c5 18 7 19 10 5 2
-10 12 -18 23 -18 11 0 19 7 20 18 1 16 2 16 6 -1 4 -16 23 -18 260 -17 l256
1 -7 122 c-4 66 -11 139 -15 161 -5 23 -12 76 -16 119 -7 81 -24 96 -26 24
l-1 -42 -8 40 c-6 30 -4 42 7 50 11 9 13 22 8 58 -7 44 -24 58 -24 19 0 -9 -4
-33 -10 -52 -10 -32 -10 -31 -5 15 3 28 10 58 16 69 7 12 7 21 0 25 -6 3 -10
13 -10 21 1 8 0 29 -1 45 -2 27 -3 28 -12 10 -8 -16 -9 -14 -5 11 3 17 -2 43
-10 58 -7 16 -11 32 -8 37 3 5 -2 6 -10 3 -9 -3 -17 -16 -17 -28 -1 -19 -2
-19 -6 -2 -3 11 2 25 11 31 11 8 13 19 8 39 -7 25 -9 27 -21 12 -11 -13 -11
-16 0 -16 10 -1 8 -4 -3 -11 -10 -5 -19 -20 -19 -32 -1 -14 -3 -17 -6 -6 -4
16 -17 16 -82 3 -20 -4 -22 -7 -10 -15 10 -7 7 -8 -11 -4 -14 3 -54 1 -90 -4
-38 -5 -69 -5 -74 0 -6 5 -25 9 -44 9 -18 0 -40 7 -48 15 -9 8 -20 15 -26 15
-5 0 -8 -7 -4 -15 3 -8 1 -15 -4 -15 -6 0 -10 5 -10 10 0 6 -5 10 -12 10 -6 0
-20 8 -30 17 -18 16 -18 16 -12 0 3 -9 2 -17 -4 -17 -17 0 -21 39 -5 52 12 10
13 14 1 23 -18 14 -17 8 -44 242 l-5 43 -222 -7 c-122 -3 -224 -9 -227 -12 -3
-3 -106 -6 -230 -6 -124 -1 -412 -5 -640 -9 l-415 -8 0 -122 c0 -106 -3 -126
-22 -163 -13 -23 -20 -49 -17 -57 3 -9 1 -16 -6 -16 -6 0 -8 5 -5 10 10 16 -5
12 -31 -9 -24 -19 -24 -20 -4 -26 11 -4 18 -11 15 -16 -4 -5 -15 -5 -27 2 -17
9 -24 8 -33 -5 -7 -9 -17 -16 -23 -16 -23 0 -61 -23 -55 -34 3 -6 3 -8 -2 -4
-4 4 -15 2 -23 -5 -9 -6 -13 -7 -10 -1 9 13 -112 6 -130 -9 -7 -5 -15 -7 -19
-3 -3 3 0 6 8 6 11 0 12 2 1 9 -9 5 16 10 65 13 98 6 156 31 228 99 74 69 90
123 81 260 l-6 97 263 6 c144 3 496 11 782 17 286 6 522 13 524 15 2 2 48 4
101 4 l97 0 7 -110z m-64 82 c-7 -3 -7 -9 1 -18 6 -7 9 -19 6 -26 -4 -9 -6 -8
-6 3 -1 20 -28 28 -96 30 -43 1 -46 2 -20 9 29 7 136 9 115 2z m-257 -19 c-7
-2 -19 -2 -25 0 -7 3 -2 5 12 5 14 0 19 -2 13 -5z m284 -40 c-3 -10 -5 -4 -5
12 0 17 2 24 5 18 2 -7 2 -21 0 -30z m2248 27 c3 -6 -1 -7 -9 -4 -18 7 -21 14
-7 14 6 0 13 -4 16 -10z m-4478 -42 c-3 -8 -6 -5 -6 6 -1 11 2 17 5 13 3 -3 4
-12 1 -19z m-1179 -37 c134 -28 243 -68 341 -127 181 -107 281 -239 281 -368
0 -83 -39 -206 -64 -206 -7 0 -41 30 -76 66 -107 109 -231 188 -368 235 -30
10 -123 33 -206 50 -140 29 -160 31 -279 24 -113 -6 -128 -4 -133 10 -11 28
26 187 59 255 19 38 42 70 57 78 36 19 259 9 388 -17z m3395 -36 c5 -28 4 -34
-3 -20 -8 19 -14 73 -6 64 2 -2 6 -22 9 -44z m1334 -17 c-3 -7 -5 -2 -5 12 0
14 2 19 5 13 2 -7 2 -19 0 -25z m837 16 c9 -24 2 -26 -12 -4 -7 11 -8 20 -3
20 5 0 12 -7 15 -16z m-2147 -26 c-3 -8 -6 -5 -6 6 -1 11 2 17 5 13 3 -3 4
-12 1 -19z m-40 -30 c-3 -8 -6 -5 -6 6 -1 11 2 17 5 13 3 -3 4 -12 1 -19z
m2080 -30 c-3 -8 -6 -5 -6 6 -1 11 2 17 5 13 3 -3 4 -12 1 -19z m-4337 -138
c12 -17 37 -41 54 -51 17 -10 27 -19 22 -19 -23 0 -78 48 -98 87 -12 23 -26
39 -32 36 -5 -3 -6 -1 -2 5 4 7 3 19 -2 28 -8 14 -11 11 -20 -14 -6 -17 -30
-59 -54 -94 -23 -35 -41 -67 -40 -71 1 -5 -2 -5 -8 -2 -7 4 -14 -2 -17 -14 -3
-12 -9 -21 -14 -21 -15 0 -10 8 37 67 46 56 104 163 104 193 0 8 11 -10 24
-41 12 -31 33 -71 46 -89z m2300 125 c0 -8 -4 -15 -10 -15 -5 0 -10 7 -10 15
0 8 5 15 10 15 6 0 10 -7 10 -15z m1965 -124 c3 -5 2 -12 -3 -15 -5 -3 -9 1
-9 9 0 17 3 19 12 6z m-540 -11 c3 -5 1 -10 -4 -10 -6 0 -11 5 -11 10 0 6 2
10 4 10 3 0 8 -4 11 -10z m-1227 -9 c9 -6 30 -13 46 -16 15 -3 27 -8 25 -10
-8 -7 -99 17 -99 26 0 11 6 11 28 0z m176 -4 c-3 -8 -22 -13 -47 -14 -33 0
-35 1 -9 4 18 2 30 9 27 14 -4 5 3 9 14 9 13 0 18 -5 15 -13z m-244 -7 c0 -5
-4 -10 -10 -10 -5 0 -10 5 -10 10 0 6 5 10 10 10 6 0 10 -4 10 -10z m1122 -10
c44 -21 72 -98 72 -202 1 -48 -4 -92 -9 -97 -8 -8 -37 -8 -95 0 -93 12 -236 6
-345 -16 -38 -7 -70 -12 -70 -11 -3 9 -39 220 -42 248 -6 43 4 50 89 68 146
29 346 35 400 10z m212 5 c3 -8 1 -15 -4 -15 -6 0 -10 7 -10 15 0 8 2 15 4 15
2 0 6 -7 10 -15z m-3194 1 c0 -3 -4 -8 -10 -11 -5 -3 -10 -1 -10 4 0 6 5 11
10 11 6 0 10 -2 10 -4z m2305 -6 c3 -5 1 -10 -4 -10 -6 0 -11 5 -11 10 0 6 2
10 4 10 3 0 8 -4 11 -10z m-1397 -17 c-10 -2 -28 -2 -40 0 -13 2 -5 4 17 4 22
1 32 -1 23 -4z m482 -3 c0 -5 -7 -10 -15 -10 -8 0 -15 5 -15 10 0 6 7 10 15
10 8 0 15 -4 15 -10z m368 1 c17 -5 32 -6 32 -1 0 5 9 8 19 7 12 -1 17 -6 13
-16 -3 -8 -1 -12 4 -8 6 3 11 -9 11 -26 2 -29 0 -27 -13 12 -12 39 -12 -8 0
-115 8 -65 17 -167 21 -226 3 -59 10 -120 14 -135 4 -16 5 -57 1 -93 -5 -64
-5 -64 -13 45 -31 448 -44 538 -80 543 -7 1 -29 5 -49 8 -20 3 -105 -1 -190
-10 -342 -36 -966 -63 -1224 -53 -126 5 -144 4 -172 -13 -16 -10 -32 -16 -35
-14 -3 3 -3 -35 -2 -83 2 -48 6 -188 10 -310 l8 -223 -349 2 -349 2 340 6
c187 3 341 7 342 8 1 1 0 21 -2 45 -2 23 -5 161 -7 307 -3 253 -2 265 16 262
10 -2 15 1 12 6 -3 6 1 13 10 16 9 3 178 6 377 6 369 0 649 8 643 19 -2 3 51
7 118 9 66 1 164 9 216 16 115 16 234 19 278 7z m-1555 -33 l42 -1 -38 -4
c-41 -5 -72 12 -60 31 5 7 9 5 11 -6 3 -13 14 -18 45 -20z m-613 -6 c3 -3 -8
-2 -25 2 -16 4 -34 12 -40 17 -5 5 6 4 25 -2 19 -7 37 -14 40 -17z m1539 12
c8 -7 -84 -2 -109 6 -15 5 1 6 40 3 36 -3 67 -7 69 -9z m134 9 c-13 -2 -33 -2
-45 0 -13 2 -3 4 22 4 25 0 35 -2 23 -4z m1931 -27 c-3 -15 -8 -25 -11 -23 -2
3 -1 17 3 31 3 15 8 25 11 23 2 -3 1 -17 -3 -31z m-3304 3 c0 -6 -4 -7 -10 -4
-5 3 -10 11 -10 16 0 6 5 7 10 4 6 -3 10 -11 10 -16z m950 17 c0 -2 -9 -6 -20
-9 -11 -3 -20 -1 -20 4 0 5 9 9 20 9 11 0 20 -2 20 -4z m77 -2 c-3 -3 -12 -4
-19 -1 -8 3 -5 6 6 6 11 1 17 -2 13 -5z m-1080 -21 c1 -13 -7 -18 -28 -19
l-30 -1 28 18 c15 11 28 19 28 19 1 0 1 -8 2 -17z m866 10 c-13 -2 -33 -2 -45
0 -13 2 -3 4 22 4 25 0 35 -2 23 -4z m-1503 -47 c0 -2 -21 -20 -47 -41 l-48
-37 45 41 c45 41 50 45 50 37z m380 -36 c0 -5 -5 -10 -11 -10 -5 0 -7 5 -4 10
3 6 8 10 11 10 2 0 4 -4 4 -10z m-1287 -33 c96 -25 262 -98 302 -132 17 -14
18 -16 2 -11 -11 4 -16 2 -12 -5 4 -5 14 -7 24 -4 20 6 105 -61 96 -76 -4 -5
1 -6 9 -3 24 9 68 -58 127 -196 l56 -130 -467 0 -468 0 -26 68 c-43 112 -66
221 -73 338 -7 128 -1 161 30 174 12 6 85 8 162 6 109 -3 162 -9 238 -29z
m3396 -9 c7 -18 51 -485 51 -535 0 -10 -159 -13 -763 -13 l-764 0 -7 247 c-3
136 -3 250 1 254 5 3 220 12 478 18 416 10 861 34 874 46 2 3 31 5 63 5 52 0
59 -3 67 -22z m1508 -50 c-2 -13 -4 -3 -4 22 0 25 2 35 4 23 2 -13 2 -33 0
-45z m-4097 48 c0 -3 -15 -14 -32 -26 l-33 -22 28 26 c27 25 37 31 37 22z
m-59 -88 c-3 -21 -6 -26 -9 -15 -3 17 3 47 11 47 2 0 1 -15 -2 -32z m456 0
c-3 -8 -6 -5 -6 6 -1 11 2 17 5 13 3 -3 4 -12 1 -19z m2840 -45 c-3 -10 -5 -4
-5 12 0 17 2 24 5 18 2 -7 2 -21 0 -30z m-2820 -5 c-3 -8 -6 -5 -6 6 -1 11 2
17 5 13 3 -3 4 -12 1 -19z m-497 -35 c-11 -17 -11 -17 -6 0 3 10 6 24 7 30 0
9 2 9 5 0 3 -7 0 -20 -6 -30z m4240 7 c0 -5 -4 -10 -10 -10 -5 0 -10 5 -10 10
0 6 5 10 10 10 6 0 10 -4 10 -10z m-10 -24 c0 -3 -4 -8 -10 -11 -5 -3 -10 -1
-10 4 0 6 5 11 10 11 6 0 10 -2 10 -4z m-4248 -38 c-8 -8 -9 -4 -5 13 4 13 8
18 11 10 2 -7 -1 -18 -6 -23z m3914 6 c43 -6 54 -11 64 -33 15 -32 25 -204 16
-255 l-7 -36 -203 0 -203 0 -7 61 c-3 34 -6 99 -6 144 0 96 -5 92 115 110 94
15 160 17 231 9z m251 -29 c0 -8 -4 -12 -9 -9 -4 3 -8 9 -8 15 0 5 4 9 8 9 5
0 9 -7 9 -15z m-4186 -26 c-5 -13 -22 -37 -36 -54 -15 -16 -23 -23 -19 -15 4
8 15 24 24 35 10 11 21 30 25 43 4 13 9 22 11 19 3 -2 0 -15 -5 -28z m2903
-14 c3 -8 1 -15 -4 -15 -6 0 -10 7 -10 15 0 8 2 15 4 15 2 0 6 -7 10 -15z
m-2447 -137 c-2 -24 -4 -5 -4 42 0 47 2 66 4 43 2 -24 2 -62 0 -85z m2480 50
c-3 -7 -5 -2 -5 12 0 14 2 19 5 13 2 -7 2 -19 0 -25z m-2953 -69 c3 -13 -3 -6
-13 16 -11 22 -20 47 -20 55 0 17 23 -34 33 -71z m2919 56 c-3 -9 -8 -14 -10
-11 -3 3 -2 9 2 15 9 16 15 13 8 -4z m535 -90 c0 -38 -1 -39 -8 -10 -4 17 -8
44 -8 60 -1 25 1 27 8 10 5 -11 8 -38 8 -60z m-538 8 c-11 -17 -11 -17 -6 0 3
10 7 28 7 40 2 22 2 22 6 0 2 -12 -1 -30 -7 -40z m263 -10 c-13 -2 -33 -2 -45
0 -13 2 -3 4 22 4 25 0 35 -2 23 -4z m-2080 -10 c-13 -2 -33 -2 -45 0 -13 2
-3 4 22 4 25 0 35 -2 23 -4z m-1076 -25 c-3 -8 -6 -5 -6 6 -1 11 2 17 5 13 3
-3 4 -12 1 -19z m516 5 c-13 -2 -33 -2 -45 0 -13 2 -3 4 22 4 25 0 35 -2 23
-4z m240 0 c-13 -2 -33 -2 -45 0 -13 2 -3 4 22 4 25 0 35 -2 23 -4z m-640 -30
c-13 -2 -35 -2 -50 0 -16 2 -5 4 22 4 28 0 40 -2 28 -4z m2202 -407 c30 -13
77 -46 105 -72 147 -138 156 -401 18 -569 -17 -20 -85 -80 -152 -134 -117 -94
-184 -171 -201 -228 l-6 -23 230 0 231 0 0 -110 0 -110 -375 0 -375 0 0 58 c0
88 34 233 70 301 43 79 96 134 234 235 155 115 196 177 196 298 0 105 -46 168
-122 168 -83 0 -129 -56 -136 -167 l-4 -63 -125 0 -126 0 7 63 c24 210 108
329 265 374 70 20 200 10 266 -21z m2524 10 c134 -49 245 -201 267 -365 l7
-51 -121 0 -121 0 -11 53 c-13 64 -46 123 -83 151 -39 29 -125 29 -164 0 -38
-28 -78 -104 -94 -178 -22 -96 -18 -424 5 -501 24 -80 60 -142 96 -160 40 -21
118 -19 160 4 42 22 80 90 87 156 l6 45 118 0 119 0 0 -32 c0 -44 -23 -127
-50 -183 -95 -196 -351 -276 -556 -175 -114 56 -192 170 -231 335 -27 120 -25
449 5 556 53 195 164 320 318 359 54 13 190 5 243 -14z m-6041 -108 l-3 -113
-173 -3 -173 -2 2 -145 1 -145 164 0 165 0 -3 -107 -3 -108 -160 -2 -160 -2
-3 -265 -2 -266 -120 0 -120 0 0 635 0 635 295 0 296 0 -3 -112z m581 75 c33
-121 301 -1210 301 -1220 0 -10 -31 -13 -122 -13 l-123 0 -23 98 c-12 53 -27
114 -33 135 l-10 37 -149 0 -149 0 -15 -52 c-8 -29 -18 -66 -22 -83 -3 -16
-13 -54 -21 -83 l-14 -52 -120 0 c-65 0 -119 3 -119 6 0 3 40 159 89 347 49
188 122 468 161 622 40 154 74 283 77 288 2 4 67 7 143 7 l139 0 10 -37z m890
8 c165 -68 246 -200 245 -401 0 -74 -5 -107 -22 -151 -26 -66 -88 -141 -132
-159 -16 -7 -30 -14 -30 -17 0 -6 43 -108 131 -309 43 -100 79 -184 79 -188 0
-3 -60 -6 -134 -6 l-134 0 -41 98 c-22 53 -65 156 -95 227 l-54 130 -41 1 -41
2 0 -229 0 -229 -125 0 -125 0 0 631 0 631 233 -4 c212 -4 237 -6 286 -27z
m757 -306 c100 -306 110 -332 121 -307 6 15 58 165 114 335 l104 307 142 0
143 0 1 -605 c1 -333 2 -615 2 -627 1 -23 -1 -23 -121 -26 l-122 -3 -1 388
c-1 213 -3 379 -6 368 -5 -21 -36 -118 -133 -422 l-61 -193 -67 0 -67 0 -107
318 -106 317 -1 -387 -1 -388 -120 0 -120 0 0 630 0 630 148 0 148 0 110 -335z
m2414 220 l0 -115 -135 0 -135 0 0 -515 0 -515 -125 0 -124 0 2 515 2 515
-132 0 -133 0 0 115 0 115 390 0 390 0 0 -115z m710 0 l0 -115 -195 0 -195 0
0 -140 0 -140 175 0 175 0 0 -110 0 -110 -175 0 -175 0 0 -150 0 -150 200 0
200 0 0 -115 0 -115 -325 0 -325 0 0 630 0 630 320 0 320 0 0 -115z m1290
-140 l0 -255 185 0 185 0 0 255 0 255 120 0 120 0 0 -630 0 -630 -120 0 -120
0 0 270 0 270 -185 0 -185 0 0 -270 0 -270 -125 0 -125 0 0 630 0 630 125 0
125 0 0 -255z m965 -839 c67 -51 69 -156 5 -210 -94 -78 -230 -16 -230 104 0
59 31 104 90 132 30 15 99 1 135 -26z"/>
<path d="M5872 9298 c6 -17 38 -23 38 -8 0 6 -4 8 -10 5 -5 -3 -10 -1 -10 4 0
6 -5 11 -11 11 -6 0 -9 -6 -7 -12z"/>
<path d="M7430 8506 c0 -2 8 -10 18 -17 15 -13 16 -12 3 4 -13 16 -21 21 -21
13z"/>
<path d="M7546 8391 c-3 -5 1 -11 9 -15 8 -3 15 -1 15 4 0 13 -18 22 -24 11z"/>
<path d="M7062 8289 c2 -6 8 -11 13 -11 6 -1 15 -8 22 -17 10 -13 11 -14 10
-1 -2 8 -6 21 -10 28 -10 15 -40 16 -35 1z"/>
<path d="M7695 8250 c-3 -5 -1 -10 4 -10 6 0 11 5 11 10 0 6 -2 10 -4 10 -3 0
-8 -4 -11 -10z"/>
<path d="M7788 8154 c-12 -11 -10 -26 2 -19 6 3 7 -1 4 -9 -3 -9 -11 -13 -17
-9 -6 3 -7 1 -3 -5 9 -16 36 -15 36 0 0 6 11 1 25 -12 17 -16 23 -30 19 -43
-4 -13 -2 -18 7 -15 7 2 14 8 16 14 4 13 -81 107 -89 98z"/>
<path d="M7950 7961 c0 -5 7 -15 17 -22 15 -13 15 -12 4 9 -12 23 -21 28 -21
13z"/>
<path d="M8586 6665 c-9 -26 -7 -32 5 -12 6 10 9 21 6 23 -2 3 -7 -2 -11 -11z"/>
<path d="M2695 8704 c-22 -19 -39 -39 -37 -45 1 -6 -2 -8 -7 -5 -5 3 -13 0
-18 -7 -13 -16 -14 -55 -3 -62 11 -6 -10 -45 -23 -45 -4 0 -5 5 -1 12 4 6 3 8
-2 5 -6 -3 -15 3 -22 13 -9 16 -9 18 2 14 13 -5 31 34 21 45 -3 2 -5 -1 -5 -7
0 -7 -6 -12 -14 -12 -7 0 -19 -6 -25 -14 -10 -11 -6 -20 16 -40 17 -16 34 -24
45 -20 12 4 18 0 18 -11 0 -10 5 -15 13 -12 8 3 20 1 28 -5 11 -8 10 -9 -3 -4
-24 7 -23 -11 1 -23 16 -9 19 -6 25 27 3 21 1 55 -5 75 -5 21 -9 48 -7 60 2
15 -2 21 -12 19 -12 -3 -13 -1 -2 10 17 17 31 -3 25 -36 -3 -13 -1 -26 4 -29
9 -5 39 121 31 128 -2 2 -21 -12 -43 -31z m29 1 c-4 -8 -11 -15 -16 -15 -6 0
-5 6 2 15 7 8 14 15 16 15 2 0 1 -7 -2 -15z m-40 -130 c-4 -8 -8 -15 -10 -15
-2 0 -4 7 -4 15 0 8 4 15 10 15 5 0 7 -7 4 -15z m7 -24 c7 11 9 11 9 -3 0 -10
-4 -18 -9 -18 -18 0 -41 12 -41 22 0 6 7 5 16 -3 13 -10 17 -10 25 2z"/>
<path d="M2606 8581 c-4 -5 -2 -12 3 -15 5 -4 12 -2 15 3 4 5 2 12 -3 15 -5 4
-12 2 -15 -3z"/>
<path d="M5510 7745 c-119 -34 -240 -134 -240 -199 0 -9 10 -22 23 -31 21 -14
30 -12 113 18 79 28 101 32 189 31 86 0 114 -5 198 -33 101 -34 119 -35 136
-3 16 30 -16 80 -86 133 -108 82 -228 113 -333 84z"/>
<path d="M3815 7709 c-109 -18 -199 -63 -258 -128 -41 -45 -50 -97 -21 -125
22 -23 51 -20 119 12 155 74 267 83 424 37 69 -20 95 -24 110 -16 74 40 -16
158 -152 199 -80 25 -159 32 -222 21z"/>
<path d="M5525 7135 c-49 -17 -88 -62 -117 -135 -18 -46 -22 -76 -23 -175 0
-114 2 -123 31 -185 58 -123 118 -168 211 -157 71 8 129 80 160 202 23 89 13
245 -19 317 -33 71 -87 123 -143 137 -53 13 -51 13 -100 -4z m104 -172 c12
-10 24 -34 27 -53 13 -78 -76 -121 -131 -65 -70 69 28 179 104 118z"/>
<path d="M3875 7095 c-5 -2 -22 -6 -37 -9 -37 -8 -95 -61 -119 -107 -81 -159
-56 -457 46 -545 96 -84 243 -27 317 123 68 139 42 353 -58 472 -37 44 -111
77 -149 66z m103 -201 c29 -33 28 -65 -4 -103 -48 -58 -134 -25 -134 51 1 81
84 112 138 52z"/>
<path d="M6830 6379 c0 -5 5 -7 10 -4 6 3 10 8 10 11 0 2 -4 4 -10 4 -5 0 -10
-5 -10 -11z"/>
<path d="M6650 4862 c0 -5 -10 -14 -22 -20 l-23 -11 22 0 c12 -1 23 5 26 12 3
8 11 4 26 -12 11 -13 24 -22 27 -18 3 3 -5 17 -19 31 -27 27 -37 32 -37 18z"/>
<path d="M1334 6779 c-3 -6 -1 -16 5 -22 8 -8 11 -5 11 11 0 24 -5 28 -16 11z"/>
<path d="M2490 4836 c0 -2 7 -7 16 -10 8 -3 12 -2 9 4 -6 10 -25 14 -25 6z"/>
<path d="M2345 4269 c-11 -16 -1 -19 13 -3 7 8 8 14 3 14 -5 0 -13 -5 -16 -11z"/>
<path d="M2107 4053 c4 -11 2 -14 -5 -9 -15 9 -15 1 -1 -25 10 -20 11 -20 30
-3 22 20 26 42 4 24 -13 -11 -14 -10 -10 2 4 9 0 18 -9 21 -11 4 -13 1 -9 -10z"/>
<path d="M8356 4205 c-9 -26 -7 -32 5 -12 6 10 9 21 6 23 -2 3 -7 -2 -11 -11z"/>
<path d="M8331 4154 c0 -11 3 -14 6 -6 3 7 2 16 -1 19 -3 4 -6 -2 -5 -13z"/>
<path d="M8251 4034 c0 -11 3 -14 6 -6 3 7 2 16 -1 19 -3 4 -6 -2 -5 -13z"/>
<path d="M6832 3876 c13 -19 24 -34 25 -32 7 7 -11 44 -28 54 -18 11 -17 9 3
-22z"/>
<path d="M7770 3330 c0 -5 5 -10 11 -10 5 0 7 5 4 10 -3 6 -8 10 -11 10 -2 0
-4 -4 -4 -10z"/>
<path d="M7082 3308 c2 -5 8 -9 13 -9 5 0 11 4 13 9 1 5 -4 9 -13 9 -9 0 -14
-4 -13 -9z"/>
<path d="M5684 6046 c-74 -34 -134 -122 -134 -196 0 -25 4 -30 23 -30 13 0 34
11 47 24 12 14 43 35 69 47 40 19 57 21 128 15 80 -6 83 -5 98 18 10 15 15 40
13 62 -2 31 -10 43 -37 61 -48 32 -137 32 -207 -1z"/>
<path d="M3894 6019 c-66 -19 -108 -85 -85 -135 14 -32 48 -44 126 -44 73 0
127 -18 199 -66 57 -38 86 -33 86 15 0 42 -57 147 -98 181 -61 50 -154 71
-228 49z"/>
<path d="M4210 5503 c-81 -30 -60 -126 50 -234 136 -133 398 -209 675 -196
210 10 427 61 540 126 152 88 251 248 183 295 -49 35 -98 16 -132 -52 -47 -92
-132 -147 -291 -187 -278 -71 -598 -52 -793 47 -67 33 -132 98 -132 131 0 22
-52 77 -72 76 -7 0 -20 -3 -28 -6z"/>
<path d="M6563 4273 c9 -9 20 -13 24 -9 4 4 1 11 -7 16 -25 16 -35 11 -17 -7z"/>
<path d="M6776 3977 c3 -10 9 -15 12 -12 3 3 0 11 -7 18 -10 9 -11 8 -5 -6z"/>
<path d="M3640 4125 c0 -15 18 -40 24 -34 3 3 -1 14 -9 25 -8 10 -14 15 -15 9z"/>
<path d="M1642 4018 c2 -6 10 -14 16 -16 7 -2 10 2 6 12 -7 18 -28 22 -22 4z"/>
<path d="M3645 3600 c-74 -16 -114 -63 -122 -144 -10 -97 47 -156 149 -156 63
0 109 24 138 72 64 105 -44 254 -165 228z m90 -105 c25 -24 34 -77 17 -101
-23 -35 -79 -43 -122 -17 -34 20 -43 58 -24 95 28 53 89 64 129 23z"/>
<path d="M3632 3487 c-14 -15 -21 -34 -20 -53 2 -29 26 -57 40 -48 5 3 8 0 8
-5 0 -12 39 -14 56 -3 6 4 16 17 23 29 37 70 -53 137 -107 80z m85 -10 c14
-14 14 -17 -1 -32 -18 -19 -22 -50 -4 -39 7 4 8 3 4 -5 -4 -6 -11 -9 -16 -6
-4 3 -11 -1 -14 -7 -3 -7 -2 1 1 17 6 29 5 30 -14 13 -21 -19 -48 -25 -38 -8
4 6 3 16 -2 23 -14 18 -10 40 7 44 10 3 11 2 4 -4 -8 -5 -8 -16 -3 -31 9 -24
29 -26 37 -4 2 8 -3 10 -15 6 -13 -4 -15 -3 -4 4 10 7 10 14 2 30 -10 18 -8
20 15 17 14 -1 33 -9 41 -18z"/>
<path d="M3670 3483 c1 -5 7 -19 14 -32 11 -21 14 -21 20 -6 3 10 1 24 -5 31
-12 15 -29 19 -29 7z"/>
<path d="M3783 3578 c2 -7 10 -13 18 -13 8 0 14 -4 15 -10 0 -5 6 -23 13 -40
13 -31 11 -116 -3 -148 -7 -14 -5 -16 10 -11 18 5 18 5 1 -6 -9 -6 -14 -16
-11 -22 4 -7 2 -8 -5 -4 -6 4 -9 12 -6 17 4 5 2 9 -2 9 -16 0 -31 -36 -22 -51
8 -11 16 -7 39 21 39 44 46 86 30 174 -17 93 -19 99 -35 86 -9 -8 -15 -8 -20
0 -9 14 -28 13 -22 -2z m74 -180 c-3 -8 -6 -5 -6 6 -1 11 2 17 5 13 3 -3 4
-12 1 -19z"/>
<path d="M3520 3562 c0 -4 4 -13 9 -20 7 -11 9 -11 14 1 3 9 -1 18 -9 21 -8 3
-14 2 -14 -2z"/>
<path d="M5975 3672 c-43 -27 -61 -51 -75 -99 -15 -49 -7 -101 20 -136 11 -13
18 -26 16 -28 -6 -5 40 -11 84 -11 44 0 90 6 84 11 -2 2 8 13 23 24 30 24 53
74 53 117 0 102 -122 175 -205 122z m110 -87 c33 -32 32 -68 -1 -94 -51 -40
-124 -14 -124 43 0 44 36 41 43 -3 2 -12 10 -27 18 -32 8 -5 9 -9 3 -9 -14 0
-36 25 -29 32 3 3 -1 11 -9 17 -13 11 -15 9 -11 -9 8 -44 38 -60 80 -44 13 5
14 8 3 15 -9 6 -6 9 12 9 20 0 22 2 10 10 -13 8 -12 10 3 10 9 0 17 5 17 11 0
5 -4 7 -10 4 -5 -3 -8 0 -5 7 3 7 1 19 -4 27 -11 17 -73 19 -79 3 -5 -15 -22
-16 -22 -2 0 12 36 28 63 29 10 1 29 -10 42 -24z m-32 -52 c-7 -2 -19 -2 -25
0 -7 3 -2 5 12 5 14 0 19 -2 13 -5z"/>
<path d="M6181 3500 c-7 -22 -10 -44 -7 -49 3 -5 -2 -15 -12 -22 -15 -13 -16
-12 -3 4 9 11 10 17 2 17 -10 0 -15 -14 -12 -34 1 -5 -6 -6 -15 -2 -15 6 -15
4 -3 -10 12 -15 16 -13 41 15 22 24 28 41 28 76 0 25 -2 45 -3 45 -2 0 -9 -18
-16 -40z"/>
<path d="M5778 3323 c-11 -14 -11 -16 1 -9 8 5 16 3 21 -5 11 -16 40 -21 34
-5 -2 6 -13 17 -23 23 -16 10 -22 9 -33 -4z"/>
<path d="M6240 3310 c-9 -6 -10 -10 -3 -10 6 0 15 5 18 10 8 12 4 12 -15 0z"/>
<path d="M5797 3183 c-4 -3 -7 -11 -7 -17 0 -6 5 -5 12 2 6 6 9 14 7 17 -3 3
-9 2 -12 -2z"/>
<path d="M1903 3050 c-15 -6 -24 -21 -29 -46 -9 -48 1 -191 20 -280 17 -81 65
-216 80 -226 6 -4 56 -7 111 -7 55 1 93 3 85 5 -18 5 -104 179 -121 244 -6 25
-17 59 -24 75 -13 32 -24 105 -27 193 l-2 52 -35 -1 c-20 0 -46 -4 -58 -9z
m14 -82 c-3 -8 -6 -5 -6 6 -1 11 2 17 5 13 3 -3 4 -12 1 -19z m-20 -175 c-3
-10 -5 -2 -5 17 0 19 2 27 5 18 2 -10 2 -26 0 -35z m120 -15 c-3 -8 -6 -5 -6
6 -1 11 2 17 5 13 3 -3 4 -12 1 -19z m-63 -174 c3 -8 2 -12 -4 -9 -6 3 -10 10
-10 16 0 14 7 11 14 -7z m20 -40 c3 -8 2 -12 -4 -9 -6 3 -10 10 -10 16 0 14 7
11 14 -7z m89 -51 c-13 -2 -35 -2 -50 0 -16 2 -5 4 22 4 28 0 40 -2 28 -4z"/>
<path d="M5530 3030 c-30 -5 -79 -8 -107 -9 -29 -1 -53 -4 -53 -8 0 -5 -39 -8
-87 -9 -49 0 -243 -6 -433 -12 -190 -7 -409 -12 -487 -12 -78 0 -144 -3 -146
-7 -8 -15 6 -472 14 -467 5 3 9 0 9 -5 0 -8 227 -11 743 -11 736 0 743 0 744
20 2 18 -4 20 -64 20 -37 0 -64 2 -61 5 3 3 33 6 67 6 33 1 61 5 61 11 0 5 -3
7 -7 5 -5 -3 -9 43 -10 102 -2 125 -11 187 -23 156 -4 -11 -6 12 -4 50 2 39 1
94 -3 123 l-5 52 -47 -1 c-25 -1 -71 -5 -101 -9z m-91 -36 c2 -2 -10 -4 -27
-4 -18 0 -32 5 -32 10 0 9 47 4 59 -6z m131 12 c0 -2 -11 -6 -25 -8 -14 -3
-25 -1 -25 3 0 5 11 9 25 9 14 0 25 -2 25 -4z m-85 -15 c-3 -5 5 -12 17 -14
18 -3 16 -5 -8 -6 -21 -1 -31 4 -31 14 0 8 7 15 14 15 8 0 12 -4 8 -9z m-335
-11 c19 -13 -56 -13 -85 0 -15 7 -9 9 25 9 25 0 52 -4 60 -9z m130 0 c0 -5 -4
-10 -9 -10 -6 0 -13 5 -16 10 -3 6 1 10 9 10 9 0 16 -4 16 -10z m128 -5 c2 -2
-11 -5 -27 -7 -16 -2 -28 -1 -25 3 2 4 -2 10 -8 12 -7 3 3 3 22 0 19 -3 36 -7
38 -8z m-423 -6 c-22 -4 -56 -7 -75 -7 -32 1 -31 2 10 8 25 4 59 7 75 7 25 1
23 -1 -10 -8z m-542 -6 c-24 -2 -62 -2 -85 0 -24 2 -5 4 42 4 47 0 66 -2 43
-4z m774 1 c-3 -3 -12 -4 -19 -1 -8 3 -5 6 6 6 11 1 17 -2 13 -5z m-979 -134
c-1 -28 -2 -25 -8 15 -5 28 -8 66 -8 85 1 28 2 25 8 -15 5 -27 8 -66 8 -85z
m1460 -172 c-1 -72 -3 -89 -7 -58 -6 46 -3 160 5 160 2 0 3 -46 2 -102z
m-1315 -115 c-13 -2 -33 -2 -45 0 -13 2 -3 4 22 4 25 0 35 -2 23 -4z m160 0
c-13 -2 -33 -2 -45 0 -13 2 -3 4 22 4 25 0 35 -2 23 -4z m80 -30 c-13 -2 -33
-2 -45 0 -13 2 -3 4 22 4 25 0 35 -2 23 -4z m160 0 c-13 -2 -33 -2 -45 0 -13
2 -3 4 22 4 25 0 35 -2 23 -4z m540 0 c-24 -2 -62 -2 -85 0 -24 2 -5 4 42 4
47 0 66 -2 43 -4z m180 0 c-13 -2 -33 -2 -45 0 -13 2 -3 4 22 4 25 0 35 -2 23
-4z"/>
<path d="M6603 2770 c-25 -10 -24 -5 -17 -162 l6 -118 46 0 47 0 0 145 0 145
-30 -1 c-16 0 -40 -4 -52 -9z m37 -9 c0 -5 -9 -11 -20 -14 -11 -3 -20 -1 -20
3 0 5 8 11 18 13 9 3 18 5 20 6 1 0 2 -3 2 -8z m-13 -123 c-2 -18 -4 -6 -4 27
0 33 2 48 4 33 2 -15 2 -42 0 -60z m23 -3 c0 -84 0 -85 -24 -83 -14 1 -22 6
-20 10 3 4 11 5 19 1 12 -4 15 9 15 76 0 45 2 81 5 81 3 0 5 -38 5 -85z"/>
<path d="M2211 1738 c-1 -12 -102 -399 -108 -414 -4 -11 16 -14 101 -14 58 0
106 3 106 8 0 12 -99 428 -99 420z"/>
<path d="M2990 1686 l0 -186 78 0 c95 0 137 19 166 75 27 53 28 155 1 209 -32
64 -63 80 -161 85 l-84 3 0 -186z"/>
<path d="M9242 975 c-57 -47 -52 -139 9 -170 110 -57 213 65 132 155 -41 45
-98 51 -141 15z m113 -26 c16 -17 17 -24 7 -51 -7 -20 -8 -37 -2 -49 14 -25
13 -29 -10 -29 -12 0 -25 11 -33 26 l-12 27 -5 -24 c-3 -13 -14 -25 -23 -27
-15 -3 -17 6 -17 72 l0 76 38 0 c27 0 45 -7 57 -21z"/>
<path d="M9300 915 c0 -10 7 -15 18 -13 21 4 19 22 -2 26 -10 2 -16 -3 -16
-13z"/>
</g>
</svg>
